<svg width="28" height="28" viewBox="0 0 28 28" fill="none" xmlns="http://www.w3.org/2000/svg">
<g clip-path="url(#clip0_1673_33411)">
<path d="M13.1272 0C13.7103 0 14.2941 0 14.8772 0C14.9474 0.0153449 15.0168 0.0394582 15.0877 0.0445732C17.1921 0.203137 19.1774 0.780396 20.9794 1.875C25.444 4.58812 27.8202 8.56682 27.992 13.7987C28.0789 16.4365 27.4169 18.9217 26.0183 21.162C23.3059 25.5076 19.3681 27.8239 14.2364 27.9905C11.3428 28.0848 8.6662 27.2824 6.26655 25.6588C2.9769 23.4323 0.94919 20.3553 0.21702 16.4424C0.121298 15.9251 0.0716094 15.3997 0 14.8772C0 14.2941 0 13.7103 0 13.1272C0.065033 12.6412 0.115452 12.1531 0.198022 11.6701C0.689058 8.7948 1.95611 6.3082 3.99478 4.22568C6.09484 2.08033 8.6282 0.734362 11.5905 0.214828C12.0998 0.125682 12.6149 0.0708787 13.1272 0ZM13.9741 21.2892V21.2899C15.2221 21.2899 16.4709 21.2863 17.7189 21.2921C18.1179 21.2936 18.4562 21.1701 18.7032 20.8537C18.9911 20.4854 19.0488 20.0704 18.8523 19.6465C18.6469 19.2023 18.283 18.9692 17.7884 18.9677C16.4307 18.9648 15.073 18.9663 13.7154 18.9663C12.5674 18.9663 11.4195 18.9692 10.2716 18.9648C9.87187 18.9633 9.53647 19.0941 9.29241 19.4135C9.00817 19.7854 8.95702 20.2004 9.15723 20.6228C9.36183 21.0539 9.71842 21.287 10.2021 21.2884C11.459 21.2921 12.7165 21.2892 13.9741 21.2892ZM5.84055 10.5777C5.83836 11.866 6.87304 12.9087 8.15689 12.9123C9.44148 12.916 10.493 11.8784 10.5003 10.5997C10.5083 9.30191 9.46486 8.25481 8.16493 8.25481C6.8745 8.25554 5.84347 9.28584 5.84055 10.5777ZM22.1638 10.5894C22.1675 9.29753 21.1394 8.25919 19.8504 8.25554C18.5593 8.25115 17.5129 9.27926 17.5041 10.5617C17.4946 11.8543 18.5439 12.9123 19.8365 12.9131C21.1218 12.9123 22.1602 11.8769 22.1638 10.5894Z" fill="black"/>
</g>
<defs>
<clipPath id="clip0_1673_33411">
<rect width="28" height="27.9985" fill="white"/>
</clipPath>
</defs>
</svg>
