<svg width="16" height="20" viewBox="0 0 16 20" fill="none" xmlns="http://www.w3.org/2000/svg">
<g clip-path="url(#clip0_1674_32407)">
<path d="M13.5268 20.0002C9.51323 20.0002 5.49962 20.0002 1.48601 20.0002C1.30736 19.9444 1.11696 19.9111 0.951519 19.8279C0.298573 19.4999 0.000489464 18.9503 0.000489464 18.2298C0 15.7027 0 13.1756 0 10.648C0 8.51783 0.000489464 6.38817 0 4.25802C0 3.56102 0.278995 3.01429 0.906977 2.69418C1.14437 2.57329 1.4263 2.53902 1.68816 2.46609C4.56474 1.67071 7.44181 0.875823 10.3184 0.078486C11.5137 -0.252881 12.5087 0.496488 12.5102 1.73336C12.5107 1.97908 12.5102 2.22479 12.5102 2.4891C12.7882 2.4891 13.0472 2.48567 13.3056 2.48959C14.2914 2.50574 15.0089 3.21302 15.0099 4.19929C15.0148 8.8957 15.0133 13.5921 15.0109 18.2885C15.0104 18.8563 14.8004 19.3433 14.3247 19.6634C14.0897 19.8215 13.7946 19.891 13.5268 20.0002ZM7.50838 14.1643C10.0355 14.1589 12.0986 12.0895 12.0888 9.57018C12.079 7.03622 10.0159 4.97998 7.49419 4.99173C4.971 5.00299 2.92749 7.05188 2.92357 9.57458C2.91965 12.0978 4.98911 14.1697 7.50838 14.1643ZM7.2847 15.828C8.54849 15.828 9.81278 15.828 11.0766 15.8275C11.1613 15.8275 11.2469 15.8285 11.3301 15.8157C11.5195 15.7869 11.6551 15.6322 11.6693 15.4418C11.6825 15.2631 11.5753 15.0874 11.4016 15.0336C11.3105 15.0052 11.2097 14.9988 11.1133 14.9983C8.57248 14.9964 6.03167 14.9969 3.49037 14.9969C3.43163 14.9969 3.37241 14.9944 3.31465 15.0013C3.07188 15.0316 2.9177 15.2054 2.92798 15.4349C2.93776 15.6552 3.09537 15.806 3.33668 15.8246C3.40129 15.8294 3.46688 15.828 3.53197 15.828C4.78305 15.828 6.03363 15.828 7.2847 15.828ZM11.6576 2.47931C11.6576 2.14647 11.6816 1.82049 11.6473 1.50136C11.6307 1.34816 11.5288 1.1837 11.4212 1.06525C11.1931 0.815619 10.8979 0.786251 10.5778 0.875334C8.98118 1.31977 7.38357 1.75931 5.78596 2.2008C5.47711 2.28597 5.16825 2.37212 4.85989 2.45777C4.86234 2.46511 4.8643 2.47246 4.86674 2.4798C7.13003 2.47931 9.39331 2.47931 11.6576 2.47931ZM7.31113 16.6679C7.07031 16.6679 6.8295 16.6679 6.58819 16.6679C6.07376 16.6679 5.55934 16.664 5.04491 16.6703C4.75515 16.6738 4.57209 16.8642 4.59558 17.1172C4.6181 17.36 4.79528 17.4985 5.09581 17.4985C6.56078 17.4995 8.02575 17.4995 9.49071 17.4975C9.56756 17.4975 9.64783 17.4892 9.72125 17.4667C9.90333 17.4109 10.0213 17.2274 10.0022 17.0467C9.98213 16.8568 9.84313 16.7061 9.65419 16.6792C9.57735 16.6679 9.49854 16.6684 9.42023 16.6684C8.71736 16.6674 8.01449 16.6679 7.31113 16.6679Z" fill="white"/>
<path d="M8.71245 9.15086C7.91071 9.15086 7.10799 9.15086 6.26758 9.15086C6.30331 8.81264 6.32876 8.48519 6.37428 8.16018C6.45749 7.56598 6.59846 6.98645 6.87892 6.45C6.95087 6.31246 7.03408 6.17834 7.1305 6.05745C7.37328 5.753 7.65178 5.75251 7.88673 6.06675C8.0179 6.24197 8.1251 6.43825 8.22201 6.6355C8.50786 7.21699 8.76825 8.57182 8.71245 9.15086Z" fill="white"/>
<path d="M6.25781 10.002C7.10459 10.002 7.90975 10.002 8.7301 10.002C8.70954 10.7151 8.62046 11.4106 8.38796 12.0758C8.27098 12.4096 8.11044 12.7356 7.9215 13.0347C7.67285 13.4292 7.36107 13.416 7.08501 13.0381C6.70225 12.5139 6.53828 11.9045 6.42178 11.2824C6.34396 10.8683 6.31263 10.4454 6.25781 10.002Z" fill="white"/>
<path d="M6.10514 6.11719C5.64358 7.09269 5.50016 8.10441 5.42919 9.14648C4.88686 9.14648 4.35188 9.14648 3.81641 9.14648C3.90402 7.92527 4.79436 6.62966 6.10514 6.11719Z" fill="white"/>
<path d="M8.91211 6.12891C10.0579 6.53761 11.0785 7.76323 11.2008 9.14743C10.6654 9.14743 10.1309 9.14743 9.58463 9.14743C9.5117 8.11173 9.3727 7.09805 8.91211 6.12891Z" fill="white"/>
<path d="M6.1184 13.0582C4.76748 12.4351 4.02007 11.4302 3.79688 10.0078C4.34214 10.0078 4.87663 10.0078 5.42973 10.0078C5.50217 11.0391 5.64118 12.0587 6.1184 13.0582Z" fill="white"/>
<path d="M8.89648 13.0586C9.36882 12.0636 9.51272 11.0509 9.58369 10.0078C10.1241 10.0078 10.6605 10.0078 11.2161 10.0078C10.9997 11.4233 10.2518 12.4307 8.89648 13.0586Z" fill="white"/>
</g>
<defs>
<clipPath id="clip0_1674_32407">
<rect width="15.0133" height="20" fill="white"/>
</clipPath>
</defs>
</svg>
