<svg width="40" height="40" viewBox="0 0 40 40" fill="none" xmlns="http://www.w3.org/2000/svg">
<g clip-path="url(#clip0_1673_33389)">
<path d="M6 20.0054C6.01681 19.9454 6.04313 19.887 6.04898 19.8263C6.10089 19.2824 6.31217 18.8254 6.67843 18.408C8.24146 16.6257 9.78621 14.828 11.3339 13.0317C12.2141 12.0097 13.4789 11.7107 14.574 12.2984C14.8182 12.4293 15.0441 12.6143 15.24 12.8124C15.5536 13.1297 15.5302 13.6144 15.221 13.9192C14.9132 14.2226 14.4877 14.219 14.1419 13.9105C13.5805 13.4104 12.9846 13.4448 12.4978 14.0099C11.426 15.2527 10.3564 16.4977 9.28616 17.742C9.24595 17.7888 9.21013 17.8392 9.15238 17.9138C9.38632 17.9138 9.58809 17.9175 9.7906 17.9131C11.2937 17.8816 12.7968 17.8217 14.2998 17.829C14.979 17.8319 15.6662 17.9218 16.3344 18.052C17.4237 18.264 18.097 18.979 18.4648 20.0039C18.4918 20.08 18.5152 20.1575 18.5474 20.2547C19.5153 20.0858 20.4752 20.0763 21.4483 20.273C21.4746 20.2174 21.5067 20.1648 21.525 20.1085C21.9234 18.8664 22.7554 18.1609 24.0604 17.9789C25.7404 17.7449 27.4233 17.761 29.1099 17.8465C29.6867 17.8758 30.2642 17.9094 30.9068 17.9452C30.7285 17.7347 30.5961 17.5768 30.4616 17.4203C29.493 16.2937 28.5228 15.1672 27.5541 14.0406C27.0395 13.4418 26.4619 13.4002 25.8727 13.9192C25.5276 14.2226 25.0978 14.219 24.7944 13.9097C24.4895 13.5998 24.4866 13.1355 24.7878 12.7985C25.7908 11.6741 27.5849 11.756 28.6442 12.9791C29.2707 13.7028 29.8855 14.4368 30.5121 15.1606C31.4069 16.1951 32.2842 17.2456 33.2134 18.2479C33.7302 18.8057 33.9978 19.43 33.9993 20.167C34.0022 21.6254 34.0051 23.0839 33.9532 24.541C33.9342 25.071 33.8107 25.6105 33.6491 26.1186C33.1754 27.6085 32.1994 28.526 30.6005 28.7643C28.9286 29.0136 27.2625 29.0831 25.592 28.806C24.7191 28.6613 24.0764 28.1312 23.5011 27.4989C22.7291 26.6508 22.3431 25.6083 22.0477 24.5329C21.8262 23.7265 21.6705 22.9026 21.5031 22.0824C21.4716 21.9296 21.4227 21.8696 21.2757 21.8396C20.4343 21.6642 19.5935 21.6591 18.7499 21.8221C18.6139 21.8484 18.5408 21.8974 18.5189 22.0626C18.3478 23.3405 18.0115 24.5775 17.5531 25.7816C17.2899 26.4717 16.8981 27.0792 16.4061 27.6275C15.6794 28.4368 14.7714 28.8345 13.6923 28.9201C12.0825 29.0473 10.4895 28.9946 8.90674 28.651C8.14569 28.4858 7.55645 28.0808 7.08125 27.4864C6.60971 26.8965 6.33044 26.2246 6.21859 25.4775C6.15718 25.0739 6.07311 24.6747 6 24.2734C6 22.8507 6 21.4281 6 20.0054ZM24.855 24.8933C24.8653 25.34 25.0034 25.5813 25.2929 25.7231C25.5839 25.8657 25.8924 25.8167 26.1468 25.5666C26.5423 25.177 26.924 24.772 27.3129 24.375C28.4161 23.2492 29.5229 22.127 30.6217 20.9975C30.9668 20.6429 30.9675 20.1918 30.6495 19.8767C30.3403 19.5704 29.8673 19.5821 29.5295 19.9257C28.0601 21.4193 26.5921 22.9143 25.1343 24.4196C24.9859 24.5739 24.9106 24.7968 24.855 24.8933ZM8.45347 24.8626C8.4988 25.2099 8.68522 25.5008 8.98131 25.62C9.3154 25.7545 9.60418 25.6712 9.8542 25.4234C10.6174 24.6667 11.3836 23.913 12.1432 23.1526C12.8582 22.4377 13.5702 21.7205 14.275 20.9953C14.6069 20.6539 14.6047 20.1816 14.2955 19.8665C13.9906 19.5558 13.5351 19.5572 13.1989 19.8921C11.7075 21.3761 10.219 22.8631 8.73859 24.3589C8.607 24.4912 8.54632 24.693 8.45347 24.8626ZM13.0292 26.52C13.114 26.4863 13.28 26.4681 13.375 26.3759C13.9372 25.8306 14.5009 25.2852 15.0251 24.7047C15.2809 24.4218 15.1859 23.9481 14.9008 23.69C14.6266 23.4422 14.1982 23.4078 13.927 23.6659C13.3853 24.1798 12.8574 24.7098 12.3464 25.2545C12.1286 25.4862 12.1249 25.7882 12.2675 26.0733C12.41 26.3591 12.6542 26.4973 13.0292 26.52ZM30.7679 23.399C30.6188 23.4575 30.4316 23.4787 30.3256 23.5818C29.7649 24.1286 29.2093 24.6828 28.6851 25.264C28.4307 25.5462 28.5067 26.0016 28.7802 26.256C29.0521 26.5097 29.4732 26.5507 29.7518 26.2831C30.3103 25.7472 30.8476 25.188 31.3703 24.6177C31.5692 24.4013 31.5692 24.1104 31.4398 23.845C31.3089 23.5767 31.0816 23.4407 30.7679 23.399Z" fill="black"/>
</g>
<defs>
<clipPath id="clip0_1673_33389">
<rect width="28" height="16.985" fill="white" transform="translate(6 12)"/>
</clipPath>
</defs>
</svg>
