<svg width="20" height="15" viewBox="0 0 20 15" fill="none" xmlns="http://www.w3.org/2000/svg">
<path d="M9.99518 14.2849C7.54515 14.2849 5.09569 14.2878 2.64565 14.2838C1.37229 14.282 0.369788 13.5292 0.0779501 12.359C0.0313493 12.1719 0.0068839 11.9751 0.0068839 11.7822C0.00222382 8.69246 -0.00651383 5.6021 0.00804892 2.51173C0.013874 1.23876 0.894629 0.249816 2.15809 0.0310141C2.27926 0.0102308 2.40391 0.00330303 2.52682 0.00330303C7.5067 0.00157109 12.486 -0.00477937 17.4653 0.00676692C18.7532 0.00965349 19.747 0.88313 19.9689 2.13648C19.9876 2.24213 19.9951 2.35124 19.9957 2.45862C19.9969 5.58478 20.0074 8.71093 19.9905 11.8371C19.9841 12.9744 19.1919 13.9264 18.0781 14.2012C17.8206 14.2647 17.5463 14.2803 17.2795 14.2809C14.8516 14.2872 12.4231 14.2849 9.99518 14.2849ZM5.15336 7.37157C4.7957 7.5488 4.41882 7.7168 4.06057 7.91828C3.60388 8.17577 3.33127 8.577 3.27651 9.09774C3.24448 9.40429 3.25205 9.71604 3.25263 10.0249C3.25263 10.5335 3.53573 10.8106 4.05125 10.8118C4.82191 10.8135 5.59199 10.8124 6.36265 10.8124C7.09661 10.8124 7.83116 10.8164 8.56512 10.8106C9.01191 10.8072 9.29734 10.5162 9.30258 10.0751C9.30549 9.83728 9.30724 9.59942 9.30258 9.36215C9.28802 8.66186 8.96181 8.15498 8.3228 7.85651C7.95815 7.6862 7.58592 7.53148 7.22302 7.37272C8.53891 6.55351 8.53017 5.03748 7.76534 4.17844C6.96322 3.27783 5.55588 3.24666 4.69784 4.09935C3.90854 4.88276 3.76233 6.50155 5.15336 7.37157ZM13.7279 9.44297C13.7279 9.44355 13.7279 9.44355 13.7279 9.44412C14.4834 9.44412 15.2384 9.44643 15.9939 9.44297C16.4372 9.44066 16.7529 9.14681 16.7488 8.75077C16.7447 8.36455 16.4313 8.06434 16.0049 8.06319C14.4799 8.05857 12.9543 8.06088 11.4293 8.06203C11.2086 8.06203 11.0134 8.13362 10.8695 8.30566C10.6866 8.52389 10.64 8.77328 10.7594 9.03192C10.8812 9.2946 11.0961 9.44239 11.3961 9.44297C12.1738 9.44413 12.9508 9.44297 13.7279 9.44297ZM12.5512 4.8412C12.1813 4.8412 11.8115 4.83831 11.4416 4.84177C11.0076 4.84639 10.7035 5.12697 10.6994 5.52012C10.6948 5.91096 10.9994 6.21636 11.4252 6.22098C12.1796 6.22906 12.9339 6.22906 13.6877 6.22156C14.1194 6.21751 14.4164 5.92309 14.4159 5.52647C14.4153 5.12812 14.117 4.84639 13.6831 4.84177C13.3056 4.83773 12.9287 4.8412 12.5512 4.8412Z" fill="white"/>
<rect x="2" y="3" width="8" height="9" fill="white"/>
<g clip-path="url(#clip0_1674_32373)">
<g clip-path="url(#clip1_1674_32373)">
<path d="M10.0001 7.37436C10.0001 8.10858 10.0001 8.84279 10.0001 9.57701C9.99298 9.59893 9.9863 9.62105 9.97878 9.64296C9.91534 9.82704 9.79158 9.94496 9.59936 9.98732C9.56743 9.99442 9.53508 9.99922 9.49981 10.0055C9.49981 10.1764 9.50252 10.3427 9.49919 10.5091C9.49376 10.7787 9.27942 10.9926 9.00978 10.9979C8.83801 11.001 8.66604 11.0008 8.49428 10.9981C8.22067 10.9937 8.00529 10.7783 8.00091 10.5051C7.9984 10.3594 8.00049 10.2136 8.00007 10.0679C8.00007 10.0458 7.99715 10.0234 7.99569 10.003C6.66124 10.003 5.33452 10.003 4.00091 10.003C4.00091 10.1676 4.00216 10.3286 4.0007 10.4893C3.99819 10.7816 3.78365 10.996 3.49167 10.9985C3.34078 10.9997 3.18968 10.9989 3.03879 10.9987C2.71071 10.9981 2.502 10.79 2.50138 10.4627C2.50117 10.3098 2.50138 10.1566 2.50138 10.0049C2.15514 9.95289 2.00153 9.77298 2.00153 9.42695C2.00153 8.78394 1.99715 8.14093 2.0032 7.49812C2.00696 7.10305 2.19333 6.80836 2.53811 6.6174C2.58924 6.58901 2.61324 6.55562 2.62889 6.50303C2.804 5.91532 2.98056 5.32803 3.15733 4.74074C3.29695 4.277 3.66594 4.00068 4.14846 4.00047C5.38231 3.99984 6.61616 3.99984 7.85001 4.00047C8.33796 4.00068 8.70444 4.27575 8.84553 4.74512C9.02209 5.33241 9.19886 5.91949 9.37375 6.50741C9.38899 6.55833 9.41236 6.58985 9.46099 6.61531C9.71561 6.74888 9.88216 6.95716 9.96355 7.23286C9.97753 7.27919 9.98797 7.32699 10.0001 7.37436ZM3.67429 6.49697C5.22912 6.49697 6.77436 6.49697 8.32377 6.49697C8.31751 6.47151 8.31334 6.44876 8.30666 6.42685C8.17183 5.97647 8.03555 5.52651 7.90323 5.07529C7.88508 5.01372 7.85711 4.99807 7.79513 4.99807C6.65018 5.00016 5.50524 4.99953 4.36029 4.99995C4.28287 4.99995 4.18457 4.97616 4.13364 5.01414C4.08272 5.05212 4.07729 5.15293 4.05496 5.22723C3.92849 5.64734 3.80285 6.06767 3.67429 6.49697ZM4.50075 8.25217C4.50221 7.97563 4.27827 7.74982 4.00237 7.7494C3.72939 7.74877 3.5044 7.97 3.50148 8.24194C3.49856 8.51868 3.72062 8.74658 3.9959 8.74888C4.27264 8.75117 4.4995 8.52786 4.50075 8.25217ZM8.50012 8.25029C8.50054 7.97396 8.27598 7.74919 7.99966 7.7494C7.72688 7.74982 7.50294 7.97188 7.50086 8.24403C7.49877 8.52056 7.72187 8.74742 7.99736 8.74888C8.27368 8.75013 8.49971 8.52619 8.50012 8.25029Z" fill="#333232"/>
</g>
</g>
<defs>
<clipPath id="clip0_1674_32373">
<rect width="7.99812" height="8" fill="white" transform="translate(2 3)"/>
</clipPath>
<clipPath id="clip1_1674_32373">
<rect width="8" height="7.00052" fill="white" transform="translate(2 4)"/>
</clipPath>
</defs>
</svg>
