<svg width="360" height="340" viewBox="0 0 360 340" fill="none" xmlns="http://www.w3.org/2000/svg">
<rect width="360" height="340" fill="white"/>
<g clip-path="url(#clip0_1673_33510)">
<path d="M309.65 259.15C309.84 256.28 309.95 253.38 309.95 250.46C309.95 178.68 251.76 120.49 179.98 120.49C108.2 120.49 50 178.67 50 250.45C50 253.37 50.11 256.27 50.3 259.14H309.65V259.15Z" fill="#EEEEEE"/>
<path d="M117.398 143.947L82.2116 137.343C80.4177 137.006 78.6852 138.191 78.3485 139.985L73.9458 163.443C73.6091 165.237 74.794 166.969 76.5879 167.306L111.765 173.908C113.559 174.245 115.291 173.06 115.628 171.266L120.031 147.808C120.367 146.014 119.182 144.282 117.389 143.945L117.398 143.947Z" fill="#787878"/>
<path d="M90.8454 152.453L83.0294 150.986C82.3099 150.851 81.8375 150.16 81.9725 149.441L82.9511 144.227C83.0862 143.507 83.7768 143.035 84.4963 143.17L92.3124 144.637C93.0319 144.772 93.5043 145.463 93.3692 146.182L92.3906 151.396C92.2556 152.116 91.5649 152.588 90.8454 152.453Z" fill="#FFD100"/>
<path d="M84.6912 160.06L81.4386 159.45C80.7191 159.315 80.2467 158.624 80.3818 157.905L80.5039 157.254C80.6389 156.535 81.3296 156.062 82.0491 156.197L85.3016 156.808C86.0212 156.943 86.4935 157.633 86.3585 158.353L86.2364 159.004C86.1014 159.723 85.4107 160.195 84.6912 160.06ZM93.1577 161.649L89.9052 161.039C89.1856 160.904 88.7133 160.213 88.8483 159.494L88.9704 158.843C89.1054 158.124 89.7961 157.651 90.5156 157.786L93.7682 158.397C94.4877 158.532 94.9601 159.223 94.825 159.942L94.7029 160.593C94.5679 161.312 93.8772 161.784 93.1577 161.649ZM101.624 163.238L98.3717 162.628C97.6522 162.493 97.1798 161.802 97.3148 161.083L97.4369 160.432C97.572 159.713 98.2626 159.24 98.9822 159.375L102.235 159.986C102.954 160.121 103.427 160.812 103.292 161.531L103.169 162.182C103.034 162.901 102.344 163.374 101.624 163.238ZM110.091 164.828L106.838 164.217C106.119 164.082 105.646 163.391 105.781 162.672L105.903 162.021C106.039 161.302 106.729 160.829 107.449 160.964L110.701 161.575C111.421 161.71 111.893 162.401 111.758 163.12L111.636 163.771C111.501 164.49 110.81 164.963 110.091 164.828Z" fill="#AEAEAE"/>
<path d="M93.0867 165.687L80.0567 163.241C79.692 163.173 79.4617 162.824 79.5283 162.469C79.5949 162.114 79.9461 161.874 80.3009 161.94L93.3309 164.386C93.6956 164.454 93.9259 164.804 93.8593 165.159C93.7927 165.513 93.4415 165.754 93.0867 165.687ZM101.553 167.276L95.6888 166.175C95.3241 166.107 95.0938 165.758 95.1604 165.403C95.2269 165.048 95.5781 164.808 95.933 164.874L101.797 165.975C102.162 166.044 102.392 166.393 102.326 166.748C102.259 167.103 101.908 167.343 101.553 167.276Z" fill="#939393"/>
<path d="M92.7602 149.435L86.2452 148.212L86.4894 146.911L93.0044 148.134L93.2486 146.833L86.7336 145.61L87.0999 143.658L85.7988 143.414L84.3319 151.23L85.6329 151.474L85.9992 149.523L92.5142 150.746L92.7584 149.444L92.7602 149.435Z" fill="#FF9500"/>
<path d="M109.091 155.877C111.252 156.282 113.332 154.859 113.738 152.698C114.144 150.537 112.72 148.456 110.559 148.051C108.398 147.645 106.318 149.068 105.912 151.229C105.506 153.39 106.93 155.471 109.091 155.877Z" fill="#FF7900"/>
<path d="M211.949 229.861C210.409 229.731 208.929 228.921 207.839 227.471L191.889 192.171C189.659 189.191 189.989 184.601 192.619 181.931C195.239 179.261 199.169 179.511 201.389 182.501L217.339 217.801C219.569 220.781 219.239 225.371 216.609 228.041C215.259 229.411 213.569 230.011 211.949 229.871V229.861Z" fill="#FF7900"/>
<path d="M196.859 231.611H157.879V254.731H196.859V231.611Z" fill="#5A5A5A"/>
<path d="M196.859 231.611H179.539V267.151H196.859V231.611Z" fill="#4BB4E6"/>
<path d="M175.019 231.611H157.699V267.151H175.019V231.611Z" fill="#4BB4E6"/>
<path d="M202.261 241.78H151.731C150.351 241.78 149.221 240.66 149.221 239.27V196.41C149.221 185.05 158.431 175.83 169.801 175.83H184.201C195.561 175.83 204.781 185.04 204.781 196.41V239.27C204.781 240.65 203.661 241.78 202.271 241.78H202.261Z" fill="#FF7900"/>
<path d="M195.439 236.131H159.129C158.349 236.131 157.709 236.771 157.709 237.551V244.741C157.709 245.521 158.349 246.161 159.129 246.161H195.439C196.229 246.161 196.859 245.521 196.859 244.741V237.551C196.859 236.771 196.229 236.131 195.439 236.131Z" fill="#4BB4E6"/>
<path d="M191.829 177.19V242.06H187.459V175.66C187.459 175.66 190.149 176.04 191.829 177.2V177.19Z" fill="#4BB4E6"/>
<path d="M161.82 177.19V242.06H166.36V175.66C166.36 175.66 163.56 176.04 161.82 177.2V177.19Z" fill="#4BB4E6"/>
<path d="M183.5 175.66L178.15 201.84C177.74 203.86 174.85 203.86 174.44 201.84L169.09 175.66H183.5Z" fill="#F16E00"/>
<path d="M126.09 227.621C124.58 227.611 123.08 226.861 121.97 225.381C119.79 222.491 119.9 217.931 122.2 215.191L150.96 180.951C153.26 178.211 156.89 178.331 159.07 181.211C161.25 184.101 161.14 188.661 158.84 191.411L130.08 225.651C128.96 226.981 127.53 227.641 126.1 227.631L126.09 227.621Z" fill="#FF7900"/>
<path d="M178.05 216.961C180.76 223.321 177.79 230.681 171.42 233.381C165.06 236.091 157.7 233.121 155 226.751L178.05 216.951V216.961Z" fill="#714E46"/>
<path d="M186.699 211.841L185.959 210.111C185.539 209.121 184.399 208.661 183.409 209.081L157.169 220.231C156.179 220.651 155.729 221.791 156.149 222.781L156.879 224.511C157.299 225.501 158.449 225.961 159.429 225.541L185.659 214.391C186.649 213.971 187.109 212.831 186.689 211.841H186.699Z" fill="#714E46"/>
<path d="M127.1 213.121L124.82 227.451L158.07 232.741L160.35 218.411L127.1 213.121Z" fill="#FF7900"/>
<path d="M217.017 188.202C217.688 188.387 223.137 189.638 226.238 190.064C227.486 190.239 228.826 190.478 230.052 190.085C231.29 189.683 232.276 188.63 233.25 187.808C235.393 185.998 237.491 183.354 239.633 181.555L252.554 170.021C252.806 169.804 252.791 169.479 252.649 169.267C252.673 168.24 250.484 167.791 249.826 167.588C248.335 167.126 248.296 167.262 246.771 166.906C243.682 166.179 240.551 165.678 237.388 165.405C237.254 165.356 237.1 165.375 236.949 165.515C235.166 167.133 232.213 169.535 230.448 171.176C227.312 174.088 224.213 177.025 221.15 179.997C220.389 180.739 219.63 181.47 218.879 182.213C218.176 182.902 217.408 183.551 216.805 184.325C216.323 184.954 215.995 185.706 216.106 186.499C216.103 186.519 216.357 188.018 217.027 188.204L217.017 188.202Z" fill="black"/>
<path d="M227.889 196.571C227.889 197.901 229.139 198.881 230.439 198.581C235.349 197.421 239.009 193.001 238.999 187.741C238.999 182.471 235.329 178.071 230.409 176.931C229.109 176.631 227.869 177.611 227.869 178.951L227.899 196.581L227.889 196.571Z" fill="#714E46"/>
<path d="M220.359 192.05L205.529 217.61C204.959 218.59 205.289 219.86 206.279 220.43L215.259 225.64C216.249 226.21 217.509 225.88 218.079 224.89L232.909 199.33C233.479 198.35 233.149 197.09 232.159 196.51L223.179 191.3C222.189 190.73 220.939 191.06 220.359 192.05Z" fill="#FF7900"/>
<path d="M192.93 237.681C192.93 239.501 191.46 240.971 189.64 240.971C187.82 240.971 186.35 239.501 186.35 237.681C186.35 235.861 187.82 234.391 189.64 234.391C191.46 234.391 192.93 235.861 192.93 237.681Z" fill="#FFD200"/>
<path d="M167.529 237.681C167.529 239.501 166.059 240.971 164.239 240.971C162.419 240.971 160.949 239.501 160.949 237.681C160.949 235.861 162.419 234.391 164.239 234.391C166.059 234.391 167.529 235.861 167.529 237.681Z" fill="#FFD200"/>
<path d="M145.79 127.147C148.942 130.056 149.144 134.984 146.225 138.135C143.317 141.287 138.389 141.49 135.238 138.571C132.086 135.652 131.883 130.734 134.802 127.583C137.711 124.431 142.638 124.228 145.79 127.147Z" fill="black"/>
<path d="M139.675 125.916C141.834 127.911 145.205 127.778 147.202 125.609C149.197 123.451 149.064 120.079 146.895 118.083C144.737 116.087 141.365 116.221 139.369 118.389C137.373 120.548 137.507 123.92 139.675 125.916Z" fill="black"/>
<path d="M150.125 163.304C166.869 178.751 196.239 185.257 211.686 168.523C227.134 151.778 228.444 121.435 211.7 105.978C194.955 90.5304 165.837 89.7254 150.39 106.47C134.942 123.214 133.38 147.856 150.125 163.304Z" fill="black"/>
<path d="M214.59 121.53C216.509 123.303 219.5 123.189 221.273 121.26C223.046 119.34 222.932 116.35 221.002 114.576C219.083 112.803 216.092 112.917 214.319 114.847C212.546 116.767 212.66 119.757 214.59 121.53Z" fill="black"/>
<path d="M224.424 124.169C227.337 126.865 227.53 131.411 224.833 134.334C222.137 137.247 217.59 137.439 214.668 134.743C211.745 132.046 211.562 127.5 214.259 124.577C216.955 121.665 221.501 121.472 224.424 124.169Z" fill="black"/>
<path d="M218.598 132.535C223.354 132.344 227.366 136.049 227.557 140.805C227.749 145.562 224.044 149.573 219.287 149.765C214.531 149.956 210.519 146.251 210.328 141.494C210.136 136.738 213.841 132.726 218.598 132.535Z" fill="black"/>
<path d="M220.177 146.887C224.141 150.549 224.388 156.73 220.725 160.704C217.063 164.668 210.881 164.915 206.907 161.252C202.944 157.589 202.697 151.408 206.36 147.434C210.023 143.46 216.204 143.224 220.177 146.887Z" fill="black"/>
<path d="M212.221 157.144C216.162 161.617 215.735 168.434 211.263 172.365C206.79 176.307 199.973 175.879 196.042 171.407C192.111 166.935 192.528 160.118 197 156.187C201.472 152.245 208.289 152.673 212.221 157.144Z" fill="black"/>
<path d="M199.925 113.351C203.498 116.643 209.067 116.424 212.358 112.851C215.65 109.279 215.431 103.71 211.858 100.418C208.286 97.1267 202.716 97.3455 199.425 100.918C196.134 104.491 196.352 110.06 199.925 113.351Z" fill="black"/>
<path d="M199.327 111.969C204.002 109.52 205.806 103.756 203.368 99.0724C200.919 94.3978 195.146 92.5832 190.481 95.0325C185.807 97.4812 183.993 103.244 186.431 107.928C188.88 112.603 194.653 114.417 199.327 111.969Z" fill="black"/>
<path d="M209.257 117.416C211.472 119.465 214.925 119.325 216.973 117.11C219.022 114.894 218.883 111.442 216.667 109.393C214.451 107.344 210.999 107.484 208.95 109.7C206.901 111.915 207.041 115.367 209.257 117.416Z" fill="black"/>
<path d="M149.432 166.001C152.441 168.772 157.117 168.586 159.898 165.588C162.669 162.579 162.483 157.903 159.485 155.122C156.476 152.351 151.8 152.536 149.019 155.535C146.248 158.544 146.433 163.22 149.432 166.001Z" fill="black"/>
<path d="M141.855 160.186C145.036 163.126 149.993 162.925 152.933 159.745C155.874 156.565 155.673 151.607 152.493 148.667C149.312 145.726 144.355 145.927 141.414 149.108C138.474 152.288 138.675 157.245 141.855 160.186Z" fill="black"/>
<path d="M138.367 150.161C141.729 153.271 146.977 153.055 150.087 149.693C153.198 146.332 152.982 141.083 149.62 137.973C146.258 134.863 141.01 135.078 137.9 138.44C134.789 141.802 135.005 147.051 138.367 150.161Z" fill="black"/>
<path d="M143.886 118.777C146.618 121.293 150.873 121.125 153.389 118.393C155.906 115.661 155.738 111.407 153.006 108.89C150.274 106.374 146.019 106.541 143.503 109.274C140.986 112.006 141.154 116.26 143.886 118.777Z" fill="black"/>
<path d="M152.555 115.376C156.252 118.784 162.002 118.555 165.42 114.859C168.828 111.162 168.599 105.412 164.902 102.004C161.205 98.5958 155.455 98.8252 152.037 102.521C148.629 106.218 148.859 111.968 152.555 115.376Z" fill="black"/>
<path d="M160.357 95.6576C157.31 98.9627 157.511 104.1 160.816 107.147C164.121 110.195 169.259 109.993 172.306 106.688C175.353 103.383 175.152 98.2455 171.847 95.1983C168.541 92.1512 163.404 92.3526 160.357 95.6576Z" fill="black"/>
<path d="M168.571 92.1724C165.258 95.764 165.486 101.354 169.067 104.676C172.659 107.988 178.248 107.76 181.57 104.179C184.883 100.588 184.655 94.9981 181.074 91.6761C177.482 88.3636 171.893 88.5914 168.571 92.1724Z" fill="black"/>
<path d="M184.148 98.7861C186.583 101.037 190.386 100.885 192.637 98.4399C194.888 96.0044 194.737 92.2012 192.291 89.9502C189.856 87.6996 186.053 87.8508 183.801 90.2963C181.551 92.7319 181.702 96.535 184.148 98.7861Z" fill="black"/>
<path d="M151.929 159.061L149.535 158.696C144.598 157.936 141.167 153.28 141.928 148.323C142.687 143.386 147.343 139.955 152.3 140.716L154.694 141.081C159.631 141.841 163.062 146.497 162.302 151.454C161.542 156.391 156.886 159.822 151.929 159.061Z" fill="#714E46"/>
<path d="M202.959 166.884L200.565 166.518C195.628 165.758 192.197 161.103 192.957 156.146C193.716 151.208 198.372 147.777 203.329 148.538L205.723 148.904C210.661 149.663 214.092 154.319 213.331 159.276C212.572 164.213 207.916 167.644 202.959 166.884Z" fill="#714E46"/>
<path d="M173.948 178.721C158.749 176.393 148.235 162.053 150.563 146.864L152.711 132.827C155.04 117.628 169.379 107.114 184.568 109.442C199.767 111.771 210.281 126.111 207.953 141.3L205.806 155.337C203.477 170.536 189.137 181.049 173.948 178.721Z" fill="#714E46"/>
<path d="M151.752 154.407C150.034 154.147 148.856 152.543 149.116 150.825L153.166 124.38L159.384 125.337L155.335 151.781C155.074 153.5 153.471 154.678 151.752 154.417L151.752 154.407Z" fill="black"/>
<path d="M202.157 162.146C200.438 161.885 199.26 160.282 199.521 158.563L203.57 132.119L209.789 133.075L205.739 159.52C205.479 161.238 203.875 162.416 202.156 162.156L202.157 162.146Z" fill="black"/>
<path d="M149.16 150.355L148.219 156.464C148.827 170.094 159.03 181.955 173.007 184.099C186.984 186.243 200.264 177.987 204.932 165.164L205.873 159.055L149.16 150.355Z" fill="black"/>
<path d="M210.787 126.588C211.974 118.849 206.666 111.612 198.927 110.425L197.308 110.18C195.594 105.624 191.542 102.107 186.397 101.317C183.923 100.937 181.514 101.241 179.337 102.078C177.23 99.4745 174.204 97.6136 170.637 97.0662C163.038 95.8969 155.935 101.122 154.766 108.721C154.522 110.321 154.579 111.896 154.861 113.403L154.164 117.913L153.189 124.29L152.854 126.476L153.083 126.508C153.364 131.449 157.075 135.729 162.152 136.506C166.085 137.113 169.877 135.459 172.194 132.526C173.523 136.021 176.645 138.728 180.579 139.334C184.513 139.941 188.304 138.287 190.621 135.355C191.95 138.849 195.072 141.556 199.006 142.163C202.86 142.755 206.568 141.177 208.899 138.355L209.388 135.136L209.468 135.141L210.787 126.588Z" fill="black"/>
<path d="M169.168 160.265C168.718 162.916 170.509 165.433 173.159 165.882C175.809 166.331 178.326 164.541 178.776 161.89" fill="white"/>
<path d="M106.61 213.51C105.72 214.39 105.22 215.6 105.22 216.85C105.22 219.46 107.34 221.58 109.95 221.58H114.68V229.46C114.68 231.2 113.27 232.61 111.53 232.61H74.4899C72.7499 232.61 71.3398 231.2 71.3398 229.46V204.24C71.3398 202.5 72.7499 201.09 74.4899 201.09H111.53C113.27 201.09 114.68 202.5 114.68 204.24V212.12H109.95C108.7 212.12 107.49 212.62 106.61 213.51Z" fill="#A885D8"/>
<path d="M117.05 212.129V221.589H109.96C107.35 221.589 105.23 219.469 105.23 216.859C105.23 214.249 107.35 212.129 109.96 212.129H117.05Z" fill="#B69DF8"/>
<path d="M96.509 189.229C93.199 190.679 91.049 193.939 91.039 197.549C91.039 198.769 91.279 199.969 91.759 201.099H82.969C79.259 197.739 78.969 192.009 82.329 188.299C85.689 184.589 91.419 184.299 95.129 187.659C95.649 188.129 96.109 188.659 96.509 189.229Z" fill="#FF9909"/>
<path d="M109.169 197.55C109.169 198.77 108.929 199.97 108.449 201.1H91.7591C91.2891 199.98 91.0391 198.77 91.0391 197.55C91.0491 193.94 93.1991 190.67 96.5091 189.23C101.109 187.25 106.449 189.37 108.429 193.98C108.919 195.11 109.169 196.33 109.169 197.56V197.55Z" fill="#FBCB00"/>
<path d="M62.9006 218.221L88.4806 218.481C89.3906 218.481 90.1206 219.241 90.1106 220.141L89.9206 237.261C89.9206 238.171 89.1606 238.901 88.2606 238.891L62.6606 238.641C61.7106 238.641 60.9706 237.861 60.9806 236.911L61.1606 219.891C61.1606 218.941 61.9406 218.201 62.8906 218.211L62.9006 218.221Z" fill="#50BE87"/>
<path d="M64.97 223.771C65.92 223.771 66.67 223.021 66.7 222.091C66.7 221.631 67.09 221.231 67.56 221.251L83.72 221.411C84.18 221.411 84.58 221.801 84.56 222.271C84.56 223.221 85.31 223.971 86.24 224.001C86.7 224.001 87.1 224.391 87.08 224.861L86.99 232.521C86.99 232.981 86.6 233.381 86.13 233.361C85.18 233.361 84.43 234.111 84.4 235.041C84.4 235.501 84.01 235.901 83.54 235.881L67.39 235.701C66.93 235.701 66.53 235.311 66.55 234.841C66.55 233.891 65.8 233.141 64.87 233.111C64.41 233.111 64.01 232.721 64.03 232.251L64.12 224.591C64.12 224.131 64.51 223.731 64.98 223.751H64.97V223.771Z" fill="#B8EBD6"/>
<path d="M77.9912 230.931C79.3012 229.581 79.2711 227.431 77.9211 226.131C76.5711 224.831 74.4211 224.861 73.1211 226.201C71.8211 227.541 71.8411 229.701 73.1911 231.001C74.5411 232.301 76.6912 232.281 77.9912 230.931Z" fill="#50BE87"/>
<path d="M83.2702 229.521C83.7602 229.021 83.7502 228.211 83.2402 227.721C82.7302 227.231 81.9302 227.241 81.4402 227.751C80.9502 228.261 80.9602 229.061 81.4702 229.551C81.9802 230.041 82.7802 230.031 83.2702 229.521Z" fill="#50BE87"/>
<path d="M69.6609 229.381C70.1509 228.881 70.1409 228.071 69.6309 227.581C69.1209 227.091 68.3209 227.101 67.8309 227.611C67.3409 228.121 67.3509 228.921 67.8609 229.411C68.3709 229.901 69.1709 229.891 69.6609 229.381Z" fill="#50BE87"/>
<path d="M82.9006 225.221L108.481 225.481C109.391 225.481 110.121 226.241 110.111 227.141L109.921 244.261C109.921 245.171 109.161 245.901 108.261 245.891L82.6606 245.641C81.7106 245.641 80.9706 244.861 80.9806 243.911L81.1606 226.891C81.1606 225.941 81.9406 225.201 82.8906 225.211L82.9006 225.221Z" fill="#50BE87"/>
<path d="M84.97 230.771C85.92 230.771 86.67 230.021 86.7 229.091C86.7 228.631 87.09 228.231 87.56 228.251L103.72 228.411C104.18 228.411 104.58 228.801 104.56 229.271C104.56 230.221 105.31 230.971 106.24 231.001C106.7 231.001 107.1 231.391 107.08 231.861L106.99 239.521C106.99 239.981 106.6 240.381 106.13 240.361C105.18 240.361 104.43 241.111 104.4 242.041C104.4 242.501 104.01 242.901 103.54 242.881L87.39 242.701C86.93 242.701 86.53 242.311 86.55 241.841C86.55 240.891 85.8 240.141 84.87 240.111C84.41 240.111 84.01 239.721 84.03 239.251L84.12 231.591C84.12 231.131 84.51 230.731 84.98 230.751H84.97V230.771Z" fill="#B8EBD6"/>
<path d="M97.9912 237.931C99.3012 236.581 99.2711 234.431 97.9211 233.131C96.5711 231.831 94.4211 231.861 93.1211 233.201C91.8211 234.541 91.8411 236.701 93.1911 238.001C94.5411 239.301 96.6912 239.281 97.9912 237.931Z" fill="#50BE87"/>
<path d="M103.27 236.521C103.76 236.021 103.75 235.211 103.24 234.721C102.73 234.231 101.93 234.241 101.44 234.751C100.95 235.261 100.96 236.061 101.47 236.551C101.98 237.041 102.78 237.031 103.27 236.521Z" fill="#50BE87"/>
<path d="M89.6609 236.381C90.1509 235.881 90.1409 235.071 89.6309 234.581C89.1209 234.091 88.3209 234.101 87.8309 234.611C87.3409 235.121 87.3509 235.921 87.8609 236.411C88.3709 236.901 89.1709 236.891 89.6609 236.381Z" fill="#50BE87"/>
<path d="M280.169 195.749L286.64 241.791C286.78 242.787 286.086 243.726 285.074 243.869C284.716 243.919 284.343 243.86 284.003 243.702L277.382 240.424L272.245 245.338C271.63 245.933 270.689 246.017 269.972 245.546L265.094 242.358L261.284 246.767C260.724 247.418 259.796 247.596 259.041 247.194L252.749 243.886L247.288 248.861C246.541 249.538 245.376 249.495 244.698 248.733C244.454 248.466 244.294 248.123 244.242 247.749L237.771 201.708C237.443 199.372 239.075 197.206 241.411 196.877L275.339 192.109C277.69 191.779 279.841 193.414 280.169 195.749ZM251.901 218.871L271.286 216.146C272.283 216.006 272.994 215.081 272.852 214.069C272.71 213.056 271.786 212.361 270.774 212.503L251.389 215.227C250.392 215.367 249.681 216.293 249.823 217.305C249.965 218.317 250.889 219.013 251.901 218.871ZM250.538 209.17L269.923 206.446C270.919 206.306 271.631 205.38 271.489 204.368C271.346 203.356 270.423 202.66 269.411 202.803L250.026 205.527C249.029 205.667 248.318 206.593 248.46 207.605C248.602 208.617 249.526 209.313 250.538 209.17ZM253.262 228.555L262.962 227.192C263.959 227.052 264.67 226.127 264.528 225.114C264.386 224.102 263.462 223.407 262.45 223.549L252.75 224.912C251.754 225.052 251.042 225.978 251.184 226.99C251.327 228.002 252.25 228.698 253.262 228.555Z" fill="#FFD200"/>
<path d="M251.924 218.867L271.309 216.143C272.305 216.003 273.017 215.077 272.874 214.065C272.732 213.053 271.809 212.357 270.797 212.499L251.412 215.224C250.415 215.364 249.704 216.289 249.846 217.301C249.988 218.313 250.912 219.009 251.924 218.867ZM250.56 209.167L269.945 206.442C270.942 206.302 271.653 205.377 271.511 204.365C271.369 203.352 270.445 202.657 269.433 202.799L250.048 205.523C249.052 205.663 248.34 206.589 248.483 207.601C248.625 208.613 249.548 209.309 250.56 209.167ZM253.285 228.552L262.985 227.189C263.982 227.049 264.693 226.123 264.551 225.111C264.409 224.099 263.485 223.403 262.473 223.545L252.773 224.908C251.776 225.048 251.065 225.974 251.207 226.986C251.349 227.998 252.273 228.694 253.285 228.552Z" fill="#FFF8D9"/>
<path d="M282.526 213.945C275.176 214.978 270.051 221.78 271.084 229.129C272.117 236.478 278.918 241.604 286.268 240.571C293.617 239.538 298.742 232.736 297.709 225.387C296.676 218.038 289.875 212.913 282.526 213.945ZM290.628 223.81L284.481 232.375C284.215 232.746 283.823 233.007 283.356 233.073C282.889 233.138 282.427 233.013 282.083 232.712L277.954 229.434C277.581 229.153 277.329 228.712 277.279 228.243C277.213 227.775 277.334 227.282 277.631 226.907C277.896 226.536 278.319 226.27 278.771 226.207C279.222 226.143 279.7 226.267 280.06 226.566L282.745 228.729L287.843 221.613C288.108 221.243 288.531 220.977 288.983 220.913C289.434 220.85 289.912 220.973 290.272 221.272C290.645 221.553 290.897 221.994 290.963 222.461C291.028 222.928 290.923 223.419 290.626 223.795L290.628 223.81Z" fill="#50BE87"/>
<path d="M290.624 223.811L284.476 232.376C284.211 232.747 283.819 233.009 283.352 233.074C282.885 233.14 282.423 233.014 282.079 232.713L277.95 229.435C277.577 229.154 277.325 228.713 277.275 228.244C277.209 227.777 277.33 227.284 277.627 226.908C277.892 226.538 278.315 226.272 278.767 226.208C279.218 226.145 279.696 226.268 280.056 226.567L282.741 228.73L287.838 221.615C288.104 221.244 288.527 220.978 288.979 220.915C289.43 220.851 289.908 220.975 290.267 221.274C290.64 221.555 290.893 221.995 290.959 222.462C291.024 222.93 290.919 223.421 290.622 223.796L290.624 223.811Z" fill="white"/>
<circle cx="253.999" cy="143.001" r="18" transform="rotate(12 253.999 143.001)" fill="black"/>
<mask id="mask0_1673_33510" style="mask-type:alpha" maskUnits="userSpaceOnUse" x="235" y="124" width="38" height="38">
<circle cx="253.999" cy="143.001" r="18" transform="rotate(12 253.999 143.001)" fill="black"/>
</mask>
<g mask="url(#mask0_1673_33510)">
</g>
<g clip-path="url(#clip1_1673_33510)">
<path fill-rule="evenodd" clip-rule="evenodd" d="M253.364 140.115L252.032 146.381C251.805 147.133 251.016 147.554 250.265 147.317C249.609 147.111 249.188 146.477 249.277 145.795L249.901 142.859L244.088 146.616C243.424 147.019 242.554 146.823 242.151 146.159C241.753 145.519 241.932 144.679 242.556 144.255L248.358 140.497L245.422 139.872C244.662 139.733 244.15 139.002 244.292 138.231C244.431 137.472 245.162 136.96 245.933 137.102C245.954 137.106 245.986 137.113 246.007 137.117L252.273 138.449C253.028 138.61 253.524 139.36 253.364 140.115Z" fill="white"/>
<path fill-rule="evenodd" clip-rule="evenodd" d="M264.342 142.548L258.538 146.317L261.473 146.941C262.233 147.08 262.745 147.812 262.603 148.582C262.464 149.342 261.733 149.853 260.962 149.712C260.941 149.707 260.909 149.701 260.888 149.696L254.622 148.364C253.867 148.204 253.371 147.453 253.531 146.698L254.863 140.433C255.09 139.68 255.88 139.259 256.63 139.496C257.286 139.703 257.707 140.337 257.618 141.018L256.994 143.954L262.809 140.187C263.465 139.771 264.335 139.967 264.751 140.622C265.159 141.265 264.987 142.129 264.342 142.548Z" fill="#F16E00"/>
</g>
</g>
<defs>
<clipPath id="clip0_1673_33510">
<rect width="259.94" height="178.15" fill="white" transform="translate(50 81)"/>
</clipPath>
<clipPath id="clip1_1673_33510">
<rect width="26.1" height="26.1" fill="white" transform="translate(243.414 127.871) rotate(12)"/>
</clipPath>
</defs>
</svg>
