<svg width="360" height="260" viewBox="0 0 360 260" fill="none" xmlns="http://www.w3.org/2000/svg">
<rect width="360" height="260" fill="white"/>
<g clip-path="url(#clip0_2515_15973)">
<g clip-path="url(#clip1_2515_15973)">
<path d="M173.912 219.803L222.727 200.488C241.982 184.693 254.266 160.716 254.266 133.867C254.266 86.2973 215.703 47.7344 168.133 47.7344C120.563 47.7344 82 86.2973 82 133.867C82 181.437 120.563 220 168.133 220C170.077 220 172 219.93 173.912 219.803Z" fill="#D6D6D6"/>
<path d="M218.666 152.131C219.352 143.821 218.086 135.489 214.405 128.004C204.899 108.664 207.079 107.262 206.783 88.0663C206.783 84.1428 203.605 80.9647 199.682 80.9647C195.758 80.9647 192.58 84.1428 192.58 88.0663V159.455C192.58 160.562 192.461 161.641 192.243 162.685V172.905C192.243 181.519 185.236 188.525 176.623 188.525H137.757C143.738 196.847 151.915 203.337 161.375 207.267C161.435 207.292 161.495 207.316 161.551 207.341C167.254 209.753 171.609 214.295 173.902 219.804C192.373 218.58 209.251 211.539 222.716 200.489L217.425 181.051C216.669 178.274 216.402 175.384 216.638 172.515L218.656 152.131H218.666ZM111.394 81.2143L109.232 79.2104C105.899 76.1202 100.643 76.3206 97.5528 79.6569C94.466 82.9897 94.6629 88.2456 97.9993 91.3358L111.394 103.746V81.2143Z" fill="#7D5B53"/>
<path d="M182.414 40H121.696C115.804 40 111.012 44.7953 111.012 50.6875V178.649C111.012 184.541 115.804 189.333 121.696 189.333H182.418C188.31 189.333 193.102 184.538 193.102 178.649V50.6875C193.102 44.7953 188.306 40 182.414 40Z" fill="black"/>
<path d="M131.585 47.9242C130.987 47.0348 130.668 45.9871 130.671 44.9148C130.668 42.7316 131.968 40.8508 133.839 40H121.696C115.793 40 111.012 44.7848 111.012 50.684V178.646C111.012 184.548 115.796 189.33 121.696 189.33H134.605V57.2898C134.605 53.9289 133.462 50.7156 131.585 47.9242Z" fill="black"/>
<path d="M117.195 107.492V178.648C117.195 181.134 119.21 183.148 121.695 183.148H182.417C184.903 183.148 186.917 181.134 186.917 178.648V107.492H117.195Z" fill="#D6D6D6"/>
<path d="M141.411 126.027H131.402C129.947 126.027 128.766 124.846 128.766 123.391C128.766 121.935 129.947 120.754 131.402 120.754H141.411C142.867 120.754 144.048 121.935 144.048 123.391C144.048 124.846 142.867 126.027 141.411 126.027ZM151.42 137.161H131.402C129.947 137.161 128.766 135.98 128.766 134.525C128.766 133.069 129.943 131.888 131.402 131.888H151.42C152.876 131.888 154.057 133.069 154.057 134.525C154.057 135.98 152.876 137.161 151.42 137.161ZM141.411 152.166H131.402C129.947 152.166 128.766 150.985 128.766 149.529C128.766 148.074 129.947 146.893 131.402 146.893H141.411C142.867 146.893 144.048 148.074 144.048 149.529C144.048 150.985 142.867 152.166 141.411 152.166ZM151.42 163.3H131.402C129.947 163.3 128.766 162.122 128.766 160.667C128.766 159.208 129.947 158.027 131.402 158.027H151.42C152.876 158.027 154.057 159.208 154.057 160.663C154.057 162.119 152.876 163.3 151.42 163.3Z" fill="white"/>
<path d="M182.379 46.1875H173.354C172.503 46.1875 171.814 46.8766 171.814 47.7273C171.814 49.7699 170.144 51.4398 168.105 51.4398H135.937C133.895 51.4398 132.225 49.7699 132.225 47.7273C132.225 46.8766 131.536 46.1875 130.685 46.1875H121.66C119.175 46.1875 117.16 48.202 117.16 50.6875V108.196H186.879V50.6875C186.879 48.202 184.864 46.1875 182.379 46.1875Z" fill="white"/>
<path d="M123.42 124.793C120.703 127.725 116.122 127.9 113.186 125.183L101.057 113.947C98.1253 111.229 97.9495 106.648 100.667 103.713C103.385 100.777 107.966 100.605 110.901 103.323L123.03 114.559C125.962 117.276 126.138 121.857 123.42 124.789V124.793Z" fill="#7D5B53"/>
<path d="M123.031 114.562L117.262 109.219C118.021 111.968 117.392 115.034 115.311 117.28C113.23 119.527 110.22 120.388 107.422 119.843L113.191 125.187C116.123 127.904 120.704 127.729 123.425 124.796C126.143 121.864 125.967 117.28 123.035 114.566L123.031 114.562Z" fill="#714E46"/>
<path d="M123.42 144.54C120.703 147.472 116.122 147.648 113.186 144.93L101.057 133.694C98.1253 130.976 97.9495 126.396 100.667 123.464C103.385 120.532 107.966 120.356 110.901 123.073L123.03 134.313C125.962 137.03 126.138 141.611 123.42 144.543V144.54ZM123.42 164.291C120.703 167.223 116.122 167.398 113.186 164.681L101.057 153.445C98.1253 150.727 97.9495 146.146 100.667 143.211C103.385 140.275 107.966 140.103 110.901 142.821L123.03 154.06C125.962 156.778 126.138 161.358 123.42 164.294V164.291Z" fill="#7D5B53"/>
<path d="M217.436 181.051C217.064 179.673 216.807 178.263 216.673 176.843C203.258 198.871 177.207 209.098 152.742 202.739C155.484 204.5 158.377 206.015 161.387 207.267L161.562 207.341C167.265 209.749 171.621 214.295 173.913 219.804C192.384 218.58 209.263 211.538 222.727 200.489L217.436 181.051ZM123.031 134.311L117.262 128.967C118.021 131.716 117.392 134.782 115.311 137.028C113.23 139.275 110.22 140.136 107.422 139.587L113.191 144.931C116.123 147.649 120.707 147.473 123.425 144.541C126.143 141.609 125.967 137.028 123.035 134.311H123.031ZM123.031 154.058L117.262 148.714C118.021 151.467 117.392 154.529 115.311 156.775C113.23 159.022 110.22 159.883 107.422 159.338L113.191 164.682C116.123 167.4 120.707 167.224 123.425 164.292C126.143 161.36 125.967 156.775 123.035 154.058H123.031Z" fill="#714E46"/>
<g clip-path="url(#clip2_2515_15973)">
<path d="M178.99 76.4297H124.65V93.3797H178.99V76.4297Z" fill="white"/>
<path fill-rule="evenodd" clip-rule="evenodd" d="M181.091 90.89V75.97C181.211 73.34 178.971 71.12 176.081 71H126.011C123.121 71.12 120.881 73.34 121.001 75.97V90.88C120.881 93.51 123.121 95.73 126.011 95.85H176.081C178.971 95.73 181.211 93.51 181.091 90.88V90.89ZM135.761 83.39L133.401 84.2L134.881 86.23C135.011 86.41 134.971 86.64 134.801 86.78L133.891 87.48C133.811 87.54 133.711 87.57 133.611 87.55C133.511 87.53 133.421 87.47 133.371 87.39L131.891 85.24L130.491 87.38C130.441 87.46 130.351 87.53 130.251 87.55C130.151 87.57 130.051 87.55 129.971 87.48L129.041 86.77C128.871 86.63 128.841 86.4 128.961 86.22L130.441 84.19L128.131 83.38C127.921 83.29 127.821 83.08 127.901 82.88L128.271 81.78C128.301 81.69 128.371 81.61 128.461 81.56C128.551 81.52 128.661 81.51 128.751 81.56L131.001 82.47V79.87C130.991 79.67 131.161 79.49 131.381 79.47H132.461C132.681 79.49 132.851 79.66 132.841 79.87V82.47L135.161 81.55C135.251 81.51 135.361 81.52 135.451 81.56C135.541 81.61 135.611 81.69 135.641 81.78L136.011 82.88C136.081 83.08 135.981 83.29 135.771 83.38L135.761 83.39ZM148.921 83.39L146.561 84.2L148.041 86.23C148.171 86.41 148.131 86.64 147.961 86.78L147.051 87.48C146.971 87.54 146.871 87.57 146.771 87.55C146.671 87.53 146.581 87.47 146.521 87.39L145.041 85.24L143.641 87.38C143.591 87.47 143.501 87.53 143.401 87.55C143.301 87.57 143.201 87.55 143.121 87.48L142.191 86.77C142.021 86.63 141.991 86.4 142.111 86.22L143.591 84.19L141.281 83.38C141.071 83.29 140.971 83.08 141.041 82.88L141.411 81.78C141.441 81.69 141.511 81.61 141.601 81.56C141.691 81.52 141.801 81.51 141.891 81.56L144.141 82.47V79.87C144.131 79.67 144.301 79.49 144.521 79.47H145.601C145.821 79.49 145.991 79.66 145.981 79.87V82.47L148.301 81.55C148.391 81.51 148.501 81.52 148.591 81.56C148.681 81.61 148.751 81.69 148.781 81.78L149.151 82.88C149.221 83.08 149.121 83.29 148.911 83.38L148.921 83.39ZM162.271 83.39L159.911 84.2L161.391 86.23C161.521 86.41 161.481 86.64 161.311 86.78L160.401 87.48C160.321 87.54 160.221 87.57 160.121 87.55C160.021 87.53 159.931 87.47 159.871 87.39L158.391 85.24L156.991 87.38C156.941 87.47 156.851 87.53 156.751 87.55C156.651 87.57 156.551 87.55 156.471 87.48L155.541 86.77C155.371 86.63 155.341 86.4 155.461 86.22L156.931 84.19L154.621 83.38C154.411 83.29 154.311 83.08 154.381 82.88L154.751 81.78C154.781 81.69 154.851 81.61 154.941 81.56C155.031 81.52 155.141 81.51 155.231 81.56L157.481 82.47V79.87C157.471 79.67 157.641 79.49 157.861 79.47H158.941C159.161 79.49 159.331 79.66 159.321 79.87V82.47L161.641 81.55C161.731 81.51 161.841 81.52 161.931 81.56C162.021 81.61 162.091 81.69 162.121 81.78L162.491 82.88C162.561 83.08 162.461 83.29 162.251 83.38L162.271 83.39ZM174.411 87.57H167.741V85.91H174.411V87.57Z" fill="#527EDB"/>
</g>
</g>
<path d="M250.165 148.467C246.065 146.7 241.631 145.833 237.165 145.833L237.165 145.767C232.698 145.733 228.265 146.633 224.165 148.4C220.198 150.1 216.598 152.5 213.565 155.533C210.531 158.6 208.098 162.167 206.431 166.133C204.665 170.233 203.798 174.667 203.798 179.133C203.765 183.6 204.665 188.033 206.431 192.133C208.131 196.1 210.531 199.7 213.565 202.733C216.631 205.767 220.231 208.2 224.165 209.867C228.265 211.633 232.698 212.5 237.165 212.5C241.631 212.5 246.065 211.633 250.131 209.9C254.098 208.2 257.698 205.8 260.731 202.767C263.765 199.7 266.198 196.133 267.865 192.167C269.631 188.067 270.498 183.633 270.498 179.167C270.498 174.7 269.631 170.267 267.898 166.2C266.198 162.233 263.798 158.633 260.765 155.6C257.698 152.567 254.131 150.133 250.165 148.467Z" fill="#F16E00"/>
<g clip-path="url(#clip3_2515_15973)">
<path d="M237.5 162C232.224 162.006 227.948 166.368 227.941 171.75V177.75C227.941 178.164 228.271 178.5 228.677 178.5H231.618C232.024 178.5 232.354 178.164 232.354 177.75V171.75C232.354 168.851 234.658 166.5 237.501 166.5C240.344 166.5 242.648 168.851 242.648 171.75V177.75C242.648 178.164 242.978 178.5 243.384 178.5H246.325C246.731 178.5 247.061 178.164 247.061 177.75V171.75C247.052 166.368 242.777 162.006 237.5 162Z" fill="#D6D6D6"/>
<path d="M228.676 177H246.323C248.353 177 249.999 178.679 249.999 180.75V194.25C249.999 196.321 248.353 198 246.323 198H228.676C226.645 198 225 196.32 225 194.25V180.75C225 178.678 226.646 177 228.676 177Z" fill="white"/>
<path d="M241.177 185.25C241.186 183.18 239.547 181.494 237.516 181.484C235.486 181.476 233.833 183.147 233.824 185.219C233.818 186.65 234.612 187.96 235.87 188.595L235.301 192.645C235.245 193.055 235.525 193.435 235.927 193.492C235.96 193.497 235.995 193.5 236.029 193.5H238.971C239.377 193.504 239.709 193.172 239.713 192.758C239.713 192.72 239.711 192.681 239.706 192.644L239.138 188.594C240.38 187.959 241.168 186.667 241.177 185.25H241.177Z" fill="#F16E00"/>
</g>
</g>
<defs>
<clipPath id="clip0_2515_15973">
<rect width="196" height="180" fill="white" transform="translate(82 40)"/>
</clipPath>
<clipPath id="clip1_2515_15973">
<rect width="172.266" height="180" fill="white" transform="translate(82 40)"/>
</clipPath>
<clipPath id="clip2_2515_15973">
<rect width="60.1" height="24.86" fill="white" transform="translate(121 71)"/>
</clipPath>
<clipPath id="clip3_2515_15973">
<rect width="25" height="36" fill="white" transform="translate(225 162)"/>
</clipPath>
</defs>
</svg>
