<svg width="189" height="180" viewBox="0 0 189 180" fill="none" xmlns="http://www.w3.org/2000/svg">
<g clip-path="url(#clip0_1688_23241)">
<path d="M91.9125 179.803L140.727 160.488C159.982 144.693 172.266 120.716 172.266 93.8672C172.266 46.2973 133.703 7.73438 86.1328 7.73438C38.5629 7.73438 0 46.2973 0 93.8672C0 141.437 38.5629 180 86.1328 180C88.077 180 90 179.93 91.9125 179.803Z" fill="#D6D6D6"/>
<path d="M136.666 112.13C137.352 103.819 136.086 95.4866 132.405 88.0018C122.899 68.6624 125.079 67.2596 124.783 48.0643C124.783 44.1409 121.605 40.9627 117.682 40.9627C113.758 40.9627 110.58 44.1409 110.58 48.0643V119.453C110.58 120.56 110.461 121.639 110.243 122.683V132.903C110.243 141.517 103.236 148.523 94.6227 148.523H55.7575C61.7375 156.845 69.9149 163.335 79.3754 167.265C79.4352 167.29 79.4949 167.314 79.5512 167.339C85.2535 169.751 89.6094 174.293 91.9016 179.802C110.373 178.578 127.251 171.537 140.716 160.487L135.425 141.049C134.669 138.272 134.402 135.382 134.638 132.513L136.656 112.13H136.666ZM29.3938 41.2124L27.2317 39.2084C23.8989 36.1182 18.643 36.3186 15.5528 39.6549C12.466 42.9877 12.6629 48.2436 15.9993 51.3338L29.3938 63.744V41.2124Z" fill="#7D5B53"/>
<path d="M100.414 0H39.6957C33.8035 0 29.0117 4.79531 29.0117 10.6875V138.649C29.0117 144.541 33.8035 149.333 39.6957 149.333H100.418C106.31 149.333 111.102 144.538 111.102 138.649V10.6875C111.102 4.79531 106.306 0 100.414 0Z" fill="black"/>
<path d="M49.5852 7.92422C48.9875 7.03477 48.6676 5.98711 48.6711 4.91484C48.6676 2.73164 49.9684 0.850781 51.8387 0H39.6957C33.793 0 29.0117 4.78477 29.0117 10.684V138.646C29.0117 144.548 33.7965 149.33 39.6957 149.33H52.6051V17.2898C52.6051 13.9289 51.4625 10.7156 49.5852 7.92422Z" fill="black"/>
<path d="M35.1953 67.4922V138.648C35.1953 141.134 37.2098 143.148 39.6953 143.148H100.417C102.903 143.148 104.917 141.134 104.917 138.648V67.4922H35.1953Z" fill="#EEEEEE"/>
<path d="M100.379 6.1875H91.3539C90.5031 6.1875 89.8141 6.87656 89.8141 7.72734C89.8141 9.76992 88.1441 11.4398 86.1051 11.4398H53.9371C51.8945 11.4398 50.2246 9.76992 50.2246 7.72734C50.2246 6.87656 49.5355 6.1875 48.6848 6.1875H39.6602C37.1746 6.1875 35.1602 8.20195 35.1602 10.6875V68.1961H104.879V10.6875C104.879 8.20195 102.864 6.1875 100.379 6.1875Z" fill="#EEEEEE"/>
<path d="M41.4202 84.7926C38.7026 87.7246 34.1218 87.9004 31.1862 85.1828L19.0573 73.9468C16.1253 71.2293 15.9495 66.6484 18.6671 63.7129C21.3847 60.7773 25.9655 60.605 28.9011 63.3226L41.03 74.5586C43.962 77.2761 44.1378 81.857 41.4202 84.789V84.7926Z" fill="#7D5B53"/>
<path d="M41.0313 74.5625L35.2621 69.2188C36.0215 71.968 35.3922 75.0336 33.3109 77.2801C31.2297 79.5266 28.2203 80.3879 25.4219 79.843L31.191 85.1867C34.123 87.9043 38.7039 87.7285 41.425 84.7965C44.1426 81.8645 43.9668 77.2801 41.0348 74.566L41.0313 74.5625Z" fill="#714E46"/>
<path d="M41.4202 104.54C38.7026 107.472 34.1218 107.648 31.1862 104.93L19.0573 93.694C16.1253 90.9765 15.9495 86.3956 18.6671 83.4636C21.3847 80.5315 25.9655 80.3558 28.9011 83.0733L41.03 94.3128C43.962 97.0304 44.1378 101.611 41.4202 104.543V104.54ZM41.4202 124.291C38.7026 127.223 34.1218 127.398 31.1862 124.681L19.0573 113.445C16.1253 110.727 15.9495 106.146 18.6671 103.211C21.3847 100.275 25.9655 100.103 28.9011 102.821L41.03 114.06C43.962 116.778 44.1378 121.358 41.4202 124.294V124.291Z" fill="#7D5B53"/>
<path d="M135.436 141.051C135.064 139.673 134.807 138.263 134.673 136.843C121.258 158.871 95.207 169.098 70.7418 162.739C73.484 164.5 76.3773 166.015 79.3867 167.267L79.5625 167.341C85.2648 169.749 89.6207 174.295 91.9129 179.804C110.384 178.58 127.263 171.538 140.727 160.489L135.436 141.051ZM41.0313 94.3106L35.2621 88.9668C36.0215 91.716 35.3922 94.7816 33.3109 97.0281C31.2297 99.2746 28.2203 100.136 25.4219 99.5875L31.191 104.931C34.123 107.649 38.7074 107.473 41.425 104.541C44.1426 101.609 43.9668 97.0281 41.0348 94.3106H41.0313ZM41.0313 114.058L35.2621 108.714C36.0215 111.467 35.3922 114.529 33.3109 116.775C31.2297 119.022 28.2203 119.883 25.4219 119.338L31.191 124.682C34.123 127.4 38.7074 127.224 41.425 124.292C44.1426 121.36 43.9668 116.775 41.0348 114.058H41.0313Z" fill="#714E46"/>
<path fill-rule="evenodd" clip-rule="evenodd" d="M68.9948 73.9056V82.2498C68.9098 83.2698 68.0173 84.0206 66.9973 83.9215C66.1048 83.8365 65.3965 83.1423 65.3257 82.2498V78.3398L58.9365 84.7006C58.1998 85.3948 57.0382 85.3806 56.344 84.644C55.664 83.9356 55.664 82.8165 56.344 82.1081L62.719 75.7473H58.809C57.8032 75.7756 56.9532 74.9823 56.9248 73.9623C56.8965 72.9565 57.6898 72.1065 58.7098 72.0781C58.7382 72.0781 58.7807 72.0781 58.809 72.0781H67.1532C68.159 72.0781 68.9948 72.8998 68.9948 73.9056Z" fill="black"/>
<path fill-rule="evenodd" clip-rule="evenodd" d="M83.643 74.033L77.268 80.408H81.178C82.1839 80.3797 83.0339 81.173 83.0622 82.193C83.0905 83.1988 82.2972 84.0488 81.2772 84.0772C81.2489 84.0772 81.2064 84.0772 81.178 84.0772H72.8339C71.828 84.0772 70.9922 83.2555 70.9922 82.2497V73.9055C71.0772 72.8855 71.9697 72.1346 72.9897 72.2338C73.8822 72.3188 74.5905 73.013 74.6614 73.9055V77.8155L81.0505 71.4405C81.773 70.7321 82.9347 70.7463 83.643 71.4688C84.3372 72.1771 84.3514 73.3246 83.643 74.033Z" fill="#F16E00"/>
</g>
<path d="M168.667 107.967C164.567 106.2 160.133 105.333 155.667 105.333L155.667 105.267C151.2 105.233 146.767 106.133 142.667 107.9C138.7 109.6 135.1 112 132.067 115.033C129.033 118.1 126.6 121.667 124.933 125.633C123.167 129.733 122.3 134.167 122.3 138.633C122.267 143.1 123.167 147.533 124.933 151.633C126.633 155.6 129.033 159.2 132.067 162.233C135.133 165.267 138.733 167.7 142.667 169.367C146.767 171.133 151.2 172 155.667 172C160.133 172 164.567 171.133 168.633 169.4C172.6 167.7 176.2 165.3 179.233 162.267C182.267 159.2 184.7 155.633 186.367 151.667C188.133 147.567 189 143.133 189 138.667C189 134.2 188.133 129.767 186.4 125.7C184.7 121.733 182.3 118.133 179.267 115.1C176.2 112.067 172.633 109.633 168.667 107.967Z" fill="#F16E00"/>
<g clip-path="url(#clip1_1688_23241)">
<path d="M161.211 153H157.211C156.661 153 156.211 152.55 156.211 152C156.211 151.45 156.661 151 157.211 151H161.211C161.761 151 162.211 151.45 162.211 152C162.211 152.55 161.761 153 161.211 153Z" fill="#494948"/>
<path d="M154.19 137.199H152.89V135.459C152.89 132.109 150.16 129.379 146.81 129.379C143.46 129.379 140.73 132.109 140.73 135.459V137.199H139.43C139.19 137.199 139 137.389 139 137.629V146.869C139 147.829 139.78 148.609 140.74 148.609H152.89C153.85 148.609 154.63 147.829 154.63 146.869V137.629C154.63 137.389 154.44 137.199 154.2 137.199H154.19ZM150.28 137.199H143.34V135.459C143.34 133.549 144.9 131.989 146.81 131.989C148.72 131.989 150.28 133.549 150.28 135.459V137.199Z" fill="#494948"/>
<path d="M146.81 144.789C147.771 144.789 148.55 144.01 148.55 143.049C148.55 142.088 147.771 141.309 146.81 141.309C145.849 141.309 145.07 142.088 145.07 143.049C145.07 144.01 145.849 144.789 146.81 144.789Z" fill="white"/>
<path d="M171.711 117H146.711C145.611 117 144.711 117.9 144.711 119V126.49H148.711V122C148.711 121.45 149.161 121 149.711 121H168.711C169.261 121 169.711 121.45 169.711 122V156C169.711 156.55 169.261 157 168.711 157H149.711C149.161 157 148.711 156.55 148.711 156V151.42H144.711V159C144.711 160.1 145.611 161 146.711 161H171.711C172.811 161 173.711 160.1 173.711 159V119C173.711 117.9 172.811 117 171.711 117Z" fill="white"/>
</g>
<defs>
<clipPath id="clip0_1688_23241">
<rect width="172.266" height="180" fill="white"/>
</clipPath>
<clipPath id="clip1_1688_23241">
<rect width="34.71" height="44" fill="white" transform="translate(139 117)"/>
</clipPath>
</defs>
</svg>
