<svg width="72" height="36" viewBox="0 0 72 36" fill="none" xmlns="http://www.w3.org/2000/svg">
<g clip-path="url(#clip0_2474_1685)">
<path fill-rule="evenodd" clip-rule="evenodd" d="M33.1053 7.53515V28.4797C33.0945 31.0197 31.0323 33.073 28.4923 33.073C25.9523 33.073 23.8901 31.0197 23.8793 28.4797V18.6587L7.85036 34.6694C6.04759 36.4505 3.14515 36.4426 1.35214 34.6516C-0.440873 32.8606 -0.452089 29.9582 1.32703 28.1534L17.3556 12.1427H7.52419C5.86875 12.1569 4.33299 11.2818 3.50116 9.85045C2.66934 8.41911 2.66934 6.65153 3.50116 5.22019C4.33299 3.78885 5.86875 2.91378 7.52419 2.9279H28.4923C31.0383 2.92656 33.1034 4.98915 33.1053 7.53515Z" fill="black"/>
<path fill-rule="evenodd" clip-rule="evenodd" d="M69.884 7.86093L53.8551 23.8719H63.6866C65.3441 23.8546 66.8832 24.729 67.717 26.1616C68.5508 27.5943 68.5508 29.3644 67.717 30.7971C66.8832 32.2297 65.3441 33.1041 63.6866 33.0868H42.7185C40.1724 33.0881 38.1071 31.0253 38.1055 28.4792V7.5351C38.1163 4.99509 40.1784 2.94173 42.7185 2.94173C45.2585 2.94173 47.3206 4.99509 47.3315 7.5351V17.356L63.3604 1.34498C65.1609 -0.449655 68.0743 -0.448131 69.873 1.34838C71.6716 3.1449 71.6765 6.05833 69.884 7.86093Z" fill="#FF7900"/>
</g>
<defs>
<clipPath id="clip0_2474_1685">
<rect width="72" height="36" fill="white"/>
</clipPath>
</defs>
</svg>
