<svg width="170" height="180" viewBox="0 0 170 180" fill="none" xmlns="http://www.w3.org/2000/svg">
<g clip-path="url(#clip0_1729_16405)">
<path d="M85.25 175C129.571 175 165.5 139.071 165.5 94.75C165.5 50.4291 129.571 14.5 85.25 14.5C40.9291 14.5 5 50.4291 5 94.75C5 139.071 40.9291 175 85.25 175Z" fill="#D6D6D6"/>
<path d="M31.6898 48.4109C40.1674 48.4109 47.0398 41.5385 47.0398 33.0609C47.0398 24.5834 40.1674 17.7109 31.6898 17.7109C23.2123 17.7109 16.3398 24.5834 16.3398 33.0609C16.3398 41.5385 23.2123 48.4109 31.6898 48.4109Z" fill="white"/>
<path d="M30.4696 36.7011L26.0796 32.3111C25.7196 31.9411 25.2296 31.7411 24.7196 31.7511C24.1896 31.7511 23.6696 31.9711 23.3096 32.3611C22.5696 33.1611 22.5696 34.3911 23.3096 35.1911L29.0696 40.9511C29.8696 41.6911 31.0996 41.6911 31.8996 40.9511L43.3696 29.4811C43.7396 29.1211 43.9396 28.6311 43.9296 28.1211C43.9296 27.5911 43.7096 27.0711 43.3196 26.7111C42.5196 25.9711 41.2896 25.9711 40.4896 26.7111L30.4896 36.7111L30.4696 36.7011ZM33.2996 53.2711C30.5896 53.2911 27.9096 52.7511 25.4196 51.6811C20.5796 49.6411 16.7296 45.7911 14.6896 40.9511C12.5696 35.9111 12.5696 30.2311 14.6896 25.1911C16.7296 20.3511 20.5796 16.5011 25.4196 14.4611C30.4596 12.3411 36.1396 12.3411 41.1796 14.4611C46.0196 16.5011 49.8696 20.3611 51.9096 25.1911C54.0296 30.2311 54.0296 35.9111 51.9096 40.9511C49.8696 45.7911 46.0196 49.6411 41.1796 51.6811C38.6896 52.7511 36.0096 53.2911 33.2996 53.2711Z" fill="#32C832"/>
<path d="M124.59 164.691C125.68 164.071 126.76 163.431 127.83 162.771H124.59V164.691Z" fill="#C19372"/>
<path d="M132.76 151.43V159.42C139.01 154.82 144.57 149.34 149.26 143.15L146.32 140.33L132.76 151.43Z" fill="#FF7900"/>
<path d="M125.83 99.8909C125.13 99.2209 124.34 98.7209 123.5 98.3809C129.09 102.211 132.76 108.631 132.76 115.921V127.321L146.32 140.331L149.26 143.151C152.34 139.091 155.04 134.721 157.3 130.101L125.83 99.9009V99.8909Z" fill="#FF7900"/>
<path d="M84.3398 167.291V173.101C84.8298 171.291 85.3298 169.481 85.8198 167.661C85.9298 167.561 86.0298 167.371 86.1398 167.371C92.1998 167.391 98.2598 167.071 104.31 167.531L104.37 167.561C103.74 169.401 103.14 171.241 102.55 173.101C103.95 172.791 105.33 172.451 106.7 172.071V167.281H84.3398V167.291Z" fill="#4BB4E6"/>
<path d="M106.699 172.081C111.169 170.841 115.479 169.241 119.599 167.291H106.699V172.081Z" fill="#4BB4E6"/>
<path d="M93.6898 100.122C96.5598 103.102 96.4598 107.852 93.4698 110.712L93.0998 111.062V160.632C93.7098 161.162 94.1298 161.902 94.2398 162.742H113.78C113.89 161.922 114.29 161.202 114.87 160.682V94.9619C113.77 94.7819 112.65 94.6719 111.5 94.6719H110.76L105.28 121.532C105.06 122.592 104.03 123.272 102.97 123.052C102.2 122.892 101.61 122.292 101.45 121.532L95.9698 94.7019C94.9898 94.7319 94.0298 94.8319 93.0898 94.9819V99.5619C93.2898 99.7319 93.4898 99.9119 93.6798 100.112L93.6898 100.122Z" fill="#FF7900"/>
<path d="M88.4094 97.8201V96.3301C84.8894 97.8101 81.8694 100.23 79.6094 103.25L83.0894 99.9101C84.5794 98.4801 86.4994 97.7901 88.3994 97.8301L88.4094 97.8201Z" fill="#FF7900"/>
<path d="M132.761 127.311V115.911C132.761 108.631 129.091 102.201 123.501 98.3714C122.221 97.5014 120.851 96.7714 119.391 96.1914V160.681C119.981 161.211 120.371 161.931 120.481 162.741H124.581V162.761H127.821C129.511 161.701 131.161 160.591 132.761 159.411V127.301V127.311Z" fill="#FF7900"/>
<path d="M87.5506 162.75C87.6506 162.04 87.9506 161.41 88.4106 160.91V115.57L75.3906 128.06V162.77H84.3406V162.75H87.5506Z" fill="#FF7900"/>
<path d="M61.57 107.491C60.94 106.481 60.39 105.421 59.93 104.311C59.8 103.791 59.88 103.251 60.14 102.781C61.05 101.051 62.08 99.3612 63.05 97.6612C64.5 95.2612 65.17 92.4612 64.96 89.6612C64.8 87.8912 63.49 87.2212 61.67 87.9112C60.97 88.1812 60.4 88.7012 60.05 89.3612C59.54 90.4212 58.93 91.4312 58.25 92.3812C57.42 93.2912 56.49 94.1212 55.48 94.8412C54.94 95.3012 54.16 95.3712 53.54 95.0012C52.15 94.2212 51.19 92.8512 50.92 91.2812C50.48 89.2912 53.2 87.5612 54.72 87.8712C55.56 88.0412 56.38 88.2912 57.2 88.5212C58.76 88.8512 60.34 88.0712 61.01 86.6212C61.26 86.0912 61.18 85.4712 60.81 85.0212C59.61 83.5312 57.84 82.6212 55.93 82.5212C54.1 82.3712 52.27 82.8112 50.71 83.7812C50.57 83.8812 50.41 83.9612 50.25 84.0312C50.03 84.0912 49.8 84.1412 49.58 84.1712C49.58 83.9612 49.5 83.7312 49.6 83.5612C50.32 82.1712 51.05 80.7712 51.84 79.4112C52.39 78.4612 53.07 77.5612 53.66 76.6212C53.91 76.1912 54.13 75.7412 54.32 75.2912C54.71 74.6612 54.53 73.8412 53.91 73.4312C53.25 72.8712 52.28 72.8912 51.63 73.4712C50.85 74.0112 50.11 74.6012 49.4 75.2312C48.88 75.6712 48.52 75.7912 48 75.3812C47 74.5912 45.78 74.9212 44.98 76.1412C44.03 77.6712 43.35 79.3612 42.98 81.1312C42.89 81.4912 42.71 81.8212 42.47 82.1012C41.91 82.7312 41.7 83.6012 41.91 84.4212C42.45 86.9412 42.09 89.6112 42.3 92.1712C42.46 95.0012 43.19 97.7812 44.45 100.321C45.58 102.471 46.63 104.661 47.69 106.851L61.66 108.151C61.79 107.961 61.75 107.761 61.59 107.491H61.57Z" fill="#714E46"/>
<path d="M60.5196 121.571L61.7696 108.171H61.6396L47.6696 106.851L46.8496 106.771L43.8496 138.881C44.2096 137.701 44.8696 136.591 45.8196 135.681L60.5196 121.571Z" fill="#FF7900"/>
<path d="M93.4794 110.71C96.4594 107.84 96.5594 103.1 93.6994 100.12C93.5094 99.9203 93.3194 99.7403 93.1094 99.5703V111.07L93.4794 110.72V110.71Z" fill="#FF7900"/>
<path d="M88.4096 97.8212C86.4996 97.7912 84.5796 98.4813 83.0996 99.9013L79.6196 103.241L60.5296 121.571L45.8296 135.681C44.8796 136.591 44.2196 137.701 43.8596 138.881C43.1296 141.251 43.6096 143.911 45.2996 145.911C44.4896 144.921 44.1396 144.031 44.1396 144.031C52.0696 140.671 54.4796 147.731 54.4796 147.731C52.9796 148.351 51.6796 148.581 50.5396 148.551C50.6996 148.561 50.8596 148.571 51.0196 148.571C52.9496 148.571 54.8096 147.831 56.2096 146.491L75.4096 128.071L88.4296 115.581V97.8313L88.4096 97.8212Z" fill="#FF7900"/>
<path d="M124.589 162.75H120.489C120.509 162.9 120.539 163.05 120.539 163.2C120.539 165.07 119.019 166.59 117.149 166.59C115.279 166.59 113.759 165.07 113.749 163.2C113.749 163.04 113.779 162.9 113.799 162.75H94.2591C94.2791 162.9 94.3091 163.05 94.3091 163.2C94.3091 165.08 92.7891 166.6 90.9191 166.6C89.0491 166.6 87.5291 165.08 87.5291 163.21C87.5291 163.05 87.5591 162.91 87.5791 162.76H84.3691V167.3H119.629C121.329 166.49 122.989 165.62 124.619 164.7V162.76L124.589 162.75Z" fill="#4BB4E6"/>
<path d="M104.31 167.541C98.2601 167.071 92.2001 167.401 86.1401 167.381C86.0301 167.381 85.9301 167.571 85.8201 167.671C85.3301 169.481 84.8301 171.291 84.3401 173.111C84.1701 173.731 84.0001 174.351 83.8301 174.981C84.3001 174.981 84.7701 175.021 85.2501 175.021C88.0301 175.021 90.7701 174.881 93.4701 174.601L93.7501 174.291C93.7501 174.291 93.7501 174.391 93.7501 174.571C96.7401 174.261 99.6701 173.761 102.56 173.131C103.15 171.281 103.75 169.431 104.38 167.591L104.32 167.561L104.31 167.541Z" fill="#4BB4E6"/>
<path d="M114.881 160.69C115.481 160.15 116.271 159.81 117.141 159.81C118.011 159.81 118.791 160.15 119.391 160.69V96.0702C118.001 95.2602 116.471 94.7202 114.881 94.4902V160.69Z" fill="#50BE87"/>
<path d="M88.4102 115.57V160.91C89.0302 160.24 89.9102 159.81 90.9002 159.81C91.7502 159.81 92.5102 160.13 93.1002 160.64V94.4805C91.4502 94.7105 89.8602 95.2505 88.4102 96.0605V115.56V115.57Z" fill="#50BE87"/>
<path d="M114.88 160.691C114.3 161.211 113.9 161.941 113.79 162.751C113.77 162.901 113.74 163.051 113.74 163.201C113.74 165.081 115.26 166.591 117.14 166.591C119.01 166.591 120.53 165.071 120.53 163.201C120.53 163.041 120.5 162.901 120.48 162.751C120.37 161.931 119.97 161.211 119.39 160.691C118.79 160.151 118.01 159.811 117.14 159.811C116.27 159.811 115.48 160.151 114.88 160.691Z" fill="#FFD200"/>
<path d="M93.1 160.641C92.51 160.131 91.74 159.811 90.9 159.811C89.91 159.811 89.03 160.241 88.41 160.911C87.95 161.411 87.65 162.041 87.55 162.751C87.53 162.901 87.5 163.051 87.5 163.201C87.5 165.071 89.02 166.591 90.89 166.591C92.76 166.591 94.28 165.071 94.28 163.201C94.28 163.041 94.25 162.901 94.23 162.751C94.12 161.911 93.7 161.171 93.09 160.641H93.1Z" fill="#FFD200"/>
<path d="M102.979 123.05C104.039 123.27 105.069 122.59 105.289 121.53L110.769 94.67L110.809 94.5H95.9395L95.9795 94.71L101.459 121.54C101.619 122.31 102.219 122.91 102.979 123.06V123.05Z" fill="#F16E00"/>
<path d="M93.7605 174.271L93.4805 174.581C93.5705 174.581 93.6605 174.561 93.7505 174.551C93.7605 174.381 93.7505 174.271 93.7505 174.271H93.7605Z" fill="#4BB4E6"/>
<path d="M54.4591 147.72C54.4591 147.72 52.0491 140.66 44.1191 144.02C44.1191 144.02 44.4691 144.91 45.2791 145.9C46.2691 147.12 47.9491 148.49 50.5191 148.54C51.6491 148.56 52.9591 148.33 54.4591 147.72Z" fill="#50BE87"/>
<path d="M70.3803 47.2911C73.7903 50.1211 74.2603 55.1811 71.4303 58.5911C68.6003 62.0011 63.5403 62.4711 60.1203 59.6411C56.7103 56.8111 56.2403 51.7511 59.0703 48.3411C61.9003 44.9311 66.9603 44.4511 70.3703 47.2811L70.3803 47.2911Z" fill="black"/>
<path d="M64.0207 46.35C66.3607 48.29 69.8207 47.97 71.7707 45.63C73.7107 43.29 73.3907 39.82 71.0507 37.88C68.7107 35.94 65.2507 36.26 63.3007 38.6C61.3607 40.94 61.6807 44.4 64.0107 46.35H64.0207Z" fill="black"/>
<path d="M76.79 84.3413C94.89 99.3713 125.53 104.491 140.56 86.3913C155.59 68.2913 155.29 36.9213 137.2 21.8913C119.11 6.86127 89.03 7.61127 74 25.7113C58.97 43.8113 58.7 69.3113 76.79 84.3413Z" fill="black"/>
<path d="M141.03 37.7806C143.11 39.5006 146.19 39.2206 147.91 37.1406C149.63 35.0606 149.35 31.9806 147.27 30.2606C145.19 28.5406 142.11 28.8206 140.39 30.9006C138.67 32.9806 138.95 36.0606 141.03 37.7806Z" fill="black"/>
<path d="M151.309 39.9707C154.459 42.5907 154.899 47.2707 152.279 50.4207C149.659 53.5707 144.979 54.0107 141.829 51.3907C138.679 48.7707 138.239 44.0907 140.859 40.9407C143.479 37.7907 148.159 37.3507 151.309 39.9707Z" fill="black"/>
<path d="M145.75 48.9208C150.64 48.4708 154.97 52.0708 155.43 56.9608C155.88 61.8508 152.28 66.1908 147.39 66.6408C142.5 67.0908 138.17 63.4908 137.71 58.6008C137.26 53.7108 140.86 49.3708 145.75 48.9208Z" fill="black"/>
<path d="M141.709 81.5008C147.287 81.5008 151.809 76.9789 151.809 71.4008C151.809 65.8227 147.287 61.3008 141.709 61.3008C136.131 61.3008 131.609 65.8227 131.609 71.4008C131.609 76.9789 136.131 81.5008 141.709 81.5008Z" fill="black"/>
<path d="M140.5 74.6411C144.8 79.0411 144.73 86.0911 140.33 90.3911C135.93 94.6911 128.88 94.6211 124.58 90.2211C120.28 85.8211 120.35 78.7711 124.75 74.4711C129.15 70.1711 136.2 70.2411 140.5 74.6411Z" fill="black"/>
<path d="M125.46 30.1498C129.32 33.3598 135.05 32.8298 138.25 28.9698C141.46 25.1098 140.92 19.3798 137.07 16.1798C133.21 12.9698 127.48 13.5098 124.28 17.3698C121.07 21.2298 121.6 26.9598 125.46 30.1598V30.1498Z" fill="black"/>
<path d="M119.729 30.0896C125.18 30.0896 129.599 25.6707 129.599 20.2196C129.599 14.7686 125.18 10.3496 119.729 10.3496C114.278 10.3496 109.859 14.7686 109.859 20.2196C109.859 25.6707 114.278 30.0896 119.729 30.0896Z" fill="black"/>
<path d="M135.289 33.8309C137.689 35.8209 141.239 35.4909 143.229 33.1009C145.219 30.7009 144.889 27.1509 142.499 25.1609C140.099 23.1709 136.549 23.5009 134.559 25.8909C132.569 28.2909 132.899 31.8409 135.289 33.8309Z" fill="black"/>
<path d="M76.2389 87.161C79.4889 89.861 84.3089 89.411 86.9989 86.161C89.6989 82.911 89.2489 78.091 85.9989 75.401C82.7489 72.701 77.9289 73.151 75.2389 76.401C72.5389 79.651 72.9889 84.471 76.2389 87.161Z" fill="black"/>
<path d="M68.0993 81.5814C71.5393 84.4314 76.6393 83.9614 79.4993 80.5214C82.3493 77.0814 81.8793 71.9814 78.4393 69.1214C74.9993 66.2714 69.8993 66.7414 67.0393 70.1814C64.1893 73.6214 64.6593 78.7214 68.0993 81.5814Z" fill="black"/>
<path d="M63.9596 71.4297C67.5996 74.4497 72.9996 73.9497 76.0196 70.3097C79.0396 66.6697 78.5396 61.2697 74.8996 58.2497C71.2596 55.2297 65.8596 55.7297 62.8396 59.3697C59.8196 63.0097 60.3196 68.4097 63.9596 71.4297Z" fill="black"/>
<path d="M67.9605 38.7602C70.9105 41.2102 75.2905 40.8102 77.7405 37.8502C80.1905 34.9002 79.7905 30.5202 76.8405 28.0702C73.8905 25.6202 69.5105 26.0202 67.0605 28.9802C64.6105 31.9302 65.0105 36.3102 67.9705 38.7602H67.9605Z" fill="black"/>
<path d="M76.7303 34.7904C80.7203 38.1104 86.6503 37.5604 89.9603 33.5604C93.2703 29.5704 92.7303 23.6404 88.7303 20.3304C84.7403 17.0204 78.8103 17.5604 75.5003 21.5604C72.1903 25.5504 72.7303 31.4804 76.7303 34.7904Z" fill="black"/>
<path d="M83.6986 14.0408C80.7386 17.6108 81.2286 22.9008 84.7986 25.8608C88.3686 28.8208 93.6586 28.3308 96.6186 24.7608C99.5786 21.1908 99.0886 15.9008 95.5186 12.9408C91.9486 9.98082 86.6586 10.4708 83.6986 14.0408Z" fill="black"/>
<path d="M91.9795 9.98983C88.7595 13.8698 89.2895 19.6298 93.1695 22.8498C97.0495 26.0698 102.81 25.5398 106.03 21.6598C109.25 17.7798 108.72 12.0198 104.84 8.79983C100.96 5.57983 95.1995 6.10983 91.9795 9.98983Z" fill="black"/>
<path d="M108.4 15.9806C111.03 18.1706 114.94 17.8106 117.13 15.1706C119.32 12.5406 118.96 8.63057 116.33 6.44057C113.7 4.25057 109.79 4.61057 107.6 7.25057C105.41 9.88057 105.77 13.7906 108.4 15.9806Z" fill="black"/>
<path d="M78.4388 79.8811L75.9487 79.6311C70.7987 79.1011 67.0388 74.5111 67.5388 69.3511C68.0688 64.2011 72.6588 60.4411 77.8188 60.9411L80.3087 61.1911C85.4587 61.7211 89.2188 66.3111 88.7188 71.4711C88.1888 76.6211 83.5988 80.3811 78.4388 79.8811Z" fill="#714E46"/>
<path d="M131.48 85.1897L128.99 84.9397C123.84 84.4097 120.08 79.8197 120.58 74.6597C121.11 69.5097 125.7 65.7497 130.86 66.2497L133.35 66.4997C138.5 67.0297 142.26 71.6197 141.76 76.7797C141.23 81.9297 136.64 85.6897 131.48 85.1897Z" fill="#714E46"/>
<path d="M102.21 98.9605C86.3801 97.3305 74.8302 83.2105 76.3702 67.3705L77.8302 52.7805C79.4602 36.9505 93.5801 25.4005 109.42 26.9405C125.25 28.5705 136.8 42.6905 135.26 58.5305L133.8 73.1205C132.17 88.9505 118.05 100.5 102.21 98.9605Z" fill="#714E46"/>
<path d="M77.9992 75.0908C76.2192 74.9108 74.9192 73.3208 75.0892 71.5408L77.8392 44.0508L84.2992 44.7008L81.5492 72.1908C81.3692 73.9708 79.7792 75.2708 77.9992 75.1008V75.0908Z" fill="black"/>
<path d="M130.4 80.3408C128.62 80.1608 127.32 78.5708 127.49 76.7908L130.24 49.3008L136.7 49.9508L133.95 77.4408C133.77 79.2208 132.18 80.5308 130.4 80.3508V80.3408Z" fill="black"/>
<path d="M75.1087 71.041L74.4688 77.391C75.8987 91.721 87.1987 103.071 101.519 104.551C115.849 105.941 129.179 97.061 133.419 83.301L134.059 76.951L75.1087 71.051V71.041Z" fill="black"/>
<path d="M137.379 43.2001C138.189 35.1601 132.319 27.9801 124.279 27.1801L122.599 27.0101C120.519 22.2501 116.039 18.9801 110.869 18.4601C108.399 18.2101 105.899 18.6101 103.629 19.6201C101.239 16.9501 97.9487 15.2801 94.3887 14.9201C86.4887 14.1301 79.4387 19.8901 78.6487 27.7901C78.4887 29.4101 78.6087 31.0401 78.9987 32.6101L78.5287 37.3001L77.8687 43.9301L77.6387 46.2001L77.8787 46.2201C78.4587 51.4101 82.5787 55.5001 87.7787 56.0401C91.7487 56.4301 95.6187 54.6501 97.9187 51.3901C99.5287 55.0401 102.969 57.5501 106.939 57.9601C110.909 58.3501 114.779 56.5701 117.079 53.3101C118.689 56.9601 122.129 59.4701 126.099 59.8801C129.979 60.2601 133.779 58.5701 136.089 55.4301L136.419 52.0901H136.499L137.389 43.1901L137.379 43.2001Z" fill="black"/>
<path d="M92.6562 78.9492C94 88.501 104.973 88.7473 108.954 80.3678C108.954 80.3678 108.954 80.3678 108.959 80.3545" fill="white"/>
</g>
<defs>
<clipPath id="clip0_1729_16405">
<rect width="160.51" height="170" fill="white" transform="translate(5 5)"/>
</clipPath>
</defs>
</svg>
