<svg width="24" height="24" viewBox="0 0 24 24" fill="none" xmlns="http://www.w3.org/2000/svg">
<path d="M11.9952 19.2849C9.54515 19.2849 7.09569 19.2878 4.64565 19.2838C3.37229 19.282 2.36979 18.5292 2.07795 17.359C2.03135 17.1719 2.00688 16.9751 2.00688 16.7822C2.00222 13.6925 1.99349 10.6021 2.00805 7.51173C2.01387 6.23876 2.89463 5.24982 4.15809 5.03101C4.27926 5.01023 4.40391 5.0033 4.52682 5.0033C9.5067 5.00157 14.486 4.99522 19.4653 5.00677C20.7532 5.00965 21.747 5.88313 21.9689 7.13648C21.9876 7.24213 21.9951 7.35124 21.9957 7.45862C21.9969 10.5848 22.0074 13.7109 21.9905 16.8371C21.9841 17.9744 21.1919 18.9264 20.0781 19.2012C19.8206 19.2647 19.5463 19.2803 19.2795 19.2809C16.8516 19.2872 14.4231 19.2849 11.9952 19.2849ZM7.15336 12.3716C6.7957 12.5488 6.41882 12.7168 6.06057 12.9183C5.60388 13.1758 5.33127 13.577 5.27651 14.0977C5.24448 14.4043 5.25205 14.716 5.25263 15.0249C5.25263 15.5335 5.53573 15.8106 6.05125 15.8118C6.82191 15.8135 7.59199 15.8124 8.36265 15.8124C9.09661 15.8124 9.83116 15.8164 10.5651 15.8106C11.0119 15.8072 11.2973 15.5162 11.3026 15.0751C11.3055 14.8373 11.3072 14.5994 11.3026 14.3621C11.288 13.6619 10.9618 13.155 10.3228 12.8565C9.95815 12.6862 9.58592 12.5315 9.22302 12.3727C10.5389 11.5535 10.5302 10.0375 9.76534 9.17844C8.96322 8.27783 7.55588 8.24666 6.69784 9.09935C5.90854 9.88276 5.76233 11.5016 7.15336 12.3716ZM15.7279 14.443C15.7279 14.4435 15.7279 14.4435 15.7279 14.4441C16.4834 14.4441 17.2384 14.4464 17.9939 14.443C18.4372 14.4407 18.7529 14.1468 18.7488 13.7508C18.7447 13.3645 18.4313 13.0643 18.0049 13.0632C16.4799 13.0586 14.9543 13.0609 13.4293 13.062C13.2086 13.062 13.0134 13.1336 12.8695 13.3057C12.6866 13.5239 12.64 13.7733 12.7594 14.0319C12.8812 14.2946 13.0961 14.4424 13.3961 14.443C14.1738 14.4441 14.9508 14.443 15.7279 14.443ZM14.5512 9.8412C14.1813 9.8412 13.8115 9.83831 13.4416 9.84177C13.0076 9.84639 12.7035 10.127 12.6994 10.5201C12.6948 10.911 12.9994 11.2164 13.4252 11.221C14.1796 11.2291 14.9339 11.2291 15.6877 11.2216C16.1194 11.2175 16.4164 10.9231 16.4159 10.5265C16.4153 10.1281 16.117 9.84639 15.6831 9.84177C15.3056 9.83773 14.9287 9.8412 14.5512 9.8412Z" fill="white"/>
</svg>
