<svg width="34" height="34" viewBox="0 0 34 34" fill="none" xmlns="http://www.w3.org/2000/svg">
<g clip-path="url(#clip0_1673_33429)">
<path d="M9.00001 16.9829C9.00836 12.5631 12.6098 8.98336 17.0321 9.00006C21.4402 9.01592 25.0091 12.6065 25.0007 17.0163C24.9915 21.4369 21.3901 25.0175 16.9678 25.0008C12.5614 24.9832 8.99166 21.391 9.00001 16.9829Z" fill="black"/>
<path d="M24.7977 10.2697C24.3643 10.1987 24.0529 10.0175 23.8775 9.64511C23.6971 9.26183 23.7339 8.87772 24.0236 8.57127C24.5372 8.02767 25.0674 7.49826 25.6144 6.98807C26.0001 6.62734 26.5989 6.67577 26.9663 7.0532C27.3245 7.42061 27.3646 8.00512 27.0122 8.38339C26.502 8.93033 25.9734 9.4614 25.4256 9.96993C25.2628 10.1202 25.009 10.1728 24.7977 10.2697Z" fill="black"/>
<path d="M17.9986 4.98903C17.9986 5.3222 18.0053 5.65538 17.9969 5.98855C17.9836 6.56889 17.541 7.00561 16.9849 6.99809C16.4421 6.99058 16.0096 6.5572 16.0012 5.99189C15.9921 5.32554 15.9912 4.65919 16.0021 3.99284C16.0113 3.42837 16.4505 3.00084 16.9966 3C17.541 2.99917 17.9794 3.42837 17.9961 3.99034C18.0061 4.32184 17.9986 4.65585 17.9986 4.98903Z" fill="black"/>
<path d="M4.99404 17.9974C4.66087 17.9974 4.32769 18.0049 3.99452 17.9957C3.43255 17.9807 3.00167 17.544 3 17.0004C2.99833 16.4534 3.4242 16.0109 3.98784 16.0009C4.66421 15.9892 5.34141 15.9892 6.01778 16.0017C6.57557 16.0117 7.00394 16.4668 6.99726 17.0104C6.99058 17.5423 6.56973 17.9757 6.02446 17.9949C5.6821 18.0066 5.33807 17.9974 4.99404 17.9974Z" fill="black"/>
<path d="M28.9924 15.999C29.3255 15.999 29.6587 15.9931 29.9919 16.0007C30.5572 16.0132 30.9906 16.4416 30.9981 16.9843C31.0056 17.5413 30.5689 17.988 29.9894 17.9964C29.323 18.0055 28.6567 18.0072 27.9903 17.9955C27.4292 17.9855 26.9992 17.5404 27 16.9968C27.0008 16.4499 27.4284 16.0165 27.992 16.0007C28.326 15.9915 28.6592 15.999 28.9924 15.999Z" fill="black"/>
<path d="M15.9994 28.9835C15.9994 28.6503 15.991 28.3171 16.001 27.984C16.0186 27.4228 16.4603 26.9978 17.0072 27.002C17.5383 27.0062 17.9825 27.427 17.9942 27.9714C18.0084 28.6587 18.0093 29.3459 17.9942 30.0331C17.9825 30.5776 17.5375 30.9967 17.0056 31.0001C16.462 31.0034 16.0177 30.5734 16.0019 30.0139C15.991 29.6707 15.9994 29.3267 15.9994 28.9835Z" fill="black"/>
<path d="M7.91577 27.1967C7.39388 27.1708 7.08075 26.9888 6.9079 26.6164C6.73505 26.2456 6.76511 25.8649 7.04401 25.5651C7.54001 25.0315 8.05355 24.513 8.58463 24.0153C8.95705 23.6654 9.55492 23.7072 9.91816 24.0629C10.2856 24.422 10.3499 25.0157 10.0025 25.3931C9.4948 25.9434 8.95621 26.4669 8.40677 26.9755C8.25813 27.1116 8.02098 27.1516 7.91577 27.1967Z" fill="black"/>
<path d="M26.05 27.1958C25.9306 27.1315 25.6734 27.0506 25.493 26.8852C25.0012 26.4368 24.5352 25.9592 24.071 25.4807C23.6768 25.0741 23.6835 24.4645 24.0668 24.0762C24.4526 23.6854 25.0655 23.6662 25.4713 24.0578C25.9656 24.5346 26.4524 25.0206 26.9234 25.5208C27.2223 25.8381 27.2741 26.2255 27.0879 26.6222C26.9125 26.9954 26.5969 27.1725 26.05 27.1958Z" fill="black"/>
<path d="M8.01482 6.85938C8.13089 6.92367 8.39142 7.01385 8.58013 7.1842C9.03522 7.5942 9.46025 8.03759 9.88945 8.47431C10.3212 8.91353 10.3345 9.51391 9.93204 9.92057C9.5329 10.3231 8.91247 10.3189 8.48244 9.89802C8.02985 9.45463 7.58145 9.00622 7.14306 8.54946C6.83995 8.23382 6.77732 7.85138 6.951 7.45308C7.12051 7.06396 7.43949 6.87441 8.01482 6.85938Z" fill="black"/>
</g>
<defs>
<clipPath id="clip0_1673_33429">
<rect width="28" height="28" fill="white" transform="translate(3 3)"/>
</clipPath>
</defs>
</svg>
