<svg width="40" height="40" viewBox="0 0 40 40" fill="none" xmlns="http://www.w3.org/2000/svg">
<path fill-rule="evenodd" clip-rule="evenodd" d="M18.9948 15.9056V24.2498C18.9098 25.2698 18.0173 26.0206 16.9973 25.9215C16.1048 25.8365 15.3965 25.1423 15.3257 24.2498V20.3398L8.93648 26.7006C8.19982 27.3948 7.03815 27.3806 6.34398 26.644C5.66398 25.9356 5.66398 24.8165 6.34398 24.1081L12.719 17.7473H8.80898C7.80315 17.7756 6.95315 16.9823 6.92482 15.9623C6.89648 14.9565 7.68982 14.1065 8.70982 14.0781C8.73815 14.0781 8.78065 14.0781 8.80898 14.0781H17.1532C18.159 14.0781 18.9948 14.8998 18.9948 15.9056Z" fill="black"/>
<path fill-rule="evenodd" clip-rule="evenodd" d="M33.643 16.033L27.268 22.408H31.178C32.1839 22.3797 33.0339 23.173 33.0622 24.193C33.0905 25.1988 32.2972 26.0488 31.2772 26.0772C31.2489 26.0772 31.2064 26.0772 31.178 26.0772H22.8339C21.828 26.0772 20.9922 25.2555 20.9922 24.2497V15.9055C21.0772 14.8855 21.9697 14.1346 22.9897 14.2338C23.8822 14.3188 24.5905 15.013 24.6614 15.9055V19.8155L31.0505 13.4405C31.773 12.7321 32.9347 12.7463 33.643 13.4688C34.3372 14.1771 34.3514 15.3246 33.643 16.033Z" fill="#F16E00"/>
</svg>
